<svg version="1.1" id="Layer_1" xmlns="http://www.w3.org/2000/svg" xmlns:xlink="http://www.w3.org/1999/xlink" x="0px" y="0px" viewBox="0 0 232 123" enable-background="new 0 0 232 123" xml:space="preserve">
<g id="document">
    <polygon fill="#FFFFFF" points="0,18.2 0,123 93.1,123 93.1,0 18.2,0 	"></polygon>
    <polygon fill="#B9EAE3" points="18.2,0 18.2,18.2 0,18.2 	"></polygon>
    <path fill="#EAF7F5" d="M81.8,100.9H16.4c-1.1,0-2-0.9-2-2V51.5c0-1.1,0.9-2,2-2h65.4c1.1,0,2,0.9,2,2v47.4
		C83.8,100,82.9,100.9,81.8,100.9z"></path>
    <path fill="#EAF7F5" d="M81.8,43H16.4c-1.1,0-2-0.9-2-2V30.5c0-1.1,0.9-2,2-2h65.4c1.1,0,2,0.9,2,2V41C83.8,42.1,82.9,43,81.8,43z"></path>
</g>
    <g id="computer_1_">
        <path fill="#5BD7C5" d="M202.2,119.3V22.5c0-3.2-2.7-5.9-5.9-5.9H50.6c-3.2,0-5.9,2.6-5.9,5.9v96.7c0,1.3,1.1,2.3,2.4,2.3h152.9
		C201.1,121.6,202.2,120.6,202.2,119.3z"></path>
        <path fill="#FFFFFF" d="M198.9,119.7V24.2c0-2.2-1.8-3.9-3.9-3.9H51.9c-2.2,0-3.9,1.8-3.9,3.9v95.5H198.9z"></path>
        <g>
            <path fill="#EAF7F5" d="M198.9,26v-1.7c0-2.2-1.8-3.9-3.9-3.9H51.9c-2.2,0-3.9,1.8-3.9,3.9V26H198.9z"></path>
        </g>
        <ellipse fill="#00D6B9" cx="61.4" cy="23.2" rx="1.1" ry="1.1"></ellipse>
        <ellipse fill="#F9E3A2" cx="57.5" cy="23.2" rx="1.1" ry="1.1"></ellipse>
        <ellipse fill="#FCCECA" cx="53.5" cy="23.2" rx="1.1" ry="1.1"></ellipse>
        <path fill="#5BD7C5" d="M215.2,115.5L215.2,115.5c0,4.1-3.4,7.5-7.5,7.5H39.1c-4.1,0-7.5-3.4-7.5-7.5l0,0"></path>
        <path fill="#00C3A5" d="M109,118.7h29c1.8,0,3.2-1.4,3.2-3.2h-35.5C105.8,117.3,107.3,118.7,109,118.7z"></path>
        <path fill="#EAF7F5" d="M187.5,103.6H58.4c-1.1,0-2-0.9-2-2V86.9c0-1.1,0.9-2,2-2h129.1c1.1,0,2,0.9,2,2v14.6
		C189.5,102.7,188.6,103.6,187.5,103.6z"></path>
        <path fill="#EAF7F5" d="M187.5,79.3H58.4c-1.1,0-2-0.9-2-2V62.7c0-1.1,0.9-2,2-2h129.1c1.1,0,2,0.9,2,2v14.6
		C189.5,78.4,188.6,79.3,187.5,79.3z"></path>
        <path fill="#EAF7F5" d="M187.6,55.1H58.5c-1.1,0-2-0.9-2-2V38.5c0-1.1,0.9-2,2-2h129.1c1.1,0,2,0.9,2,2v14.6
		C189.6,54.2,188.7,55.1,187.6,55.1z"></path>
        <g>
            <path fill="#8BE1D6" d="M75.4,99.4H64.8c-0.5,0-1-0.4-1-1v-6.9c0-0.6,0.5-1,1-1h10.6c0.6,0,1,0.4,1,1v6.9
			C76.4,99,75.9,99.4,75.4,99.4z"></path>
            <g>
                <path fill="#5BD7C5" d="M67.7,91.4L67,91.2c0.4-1.4,1.6-2.3,3.1-2.3c1.4,0,2.6,0.9,3,2.2l-0.7,0.2c-0.3-1-1.2-1.7-2.3-1.7
				C68.9,89.6,68,90.3,67.7,91.4z"></path>
            </g>
            <path fill="#B9EAE3" d="M63.8,96.4v-4.9c0-0.5,0.5-1,1-1h10.6c0.6,0,1,0.4,1,1v4.9H63.8z"></path>
            <path fill="#EAF7F5" d="M66.2,97.2L66.2,97.2c-0.2,0-0.4-0.2-0.4-0.4v-0.7c0-0.2,0.2-0.4,0.4-0.4l0,0c0.2,0,0.4,0.2,0.4,0.4v0.7
			C66.6,97,66.4,97.2,66.2,97.2z"></path>
            <path fill="#EAF7F5" d="M74,97.2L74,97.2c-0.2,0-0.4-0.2-0.4-0.4v-0.7c0-0.2,0.2-0.4,0.4-0.4l0,0c0.2,0,0.4,0.2,0.4,0.4v0.7
			C74.4,97,74.2,97.2,74,97.2z"></path>
        </g>
        <path fill="#FFFFFF" d="M135.1,99.5H83.5c-0.9,0-1.7-0.8-1.7-1.7l0,0c0-0.9,0.8-1.7,1.7-1.7h51.7c0.9,0,1.7,0.8,1.7,1.7l0,0
		C136.8,98.7,136,99.5,135.1,99.5z"></path>
        <path fill="#5BD7C5" d="M103.1,93.5H83.5c-0.9,0-1.7-0.8-1.7-1.7l0,0c0-0.9,0.8-1.7,1.7-1.7h19.6c0.9,0,1.7,0.8,1.7,1.7l0,0
		C104.8,92.7,104,93.5,103.1,93.5z"></path>
        <g>
            <path fill="#8BE1D6" d="M75.4,50.6H64.8c-0.5,0-1-0.5-1-1v-6.9c0-0.5,0.5-1,1-1h10.6c0.6,0,1,0.5,1,1v6.9
			C76.4,50.1,75.9,50.6,75.4,50.6z"></path>
            <g>
                <path fill="#5BD7C5" d="M67.7,42.6L67,42.4c0.4-1.4,1.6-2.3,3.1-2.3c1.4,0,2.6,0.9,3,2.2l-0.7,0.2c-0.3-1-1.2-1.7-2.3-1.7
				C68.9,40.8,68,41.5,67.7,42.6z"></path>
            </g>
            <path fill="#B9EAE3" d="M63.8,47.6v-4.9c0-0.5,0.5-1,1-1h10.6c0.6,0,1,0.4,1,1v4.9H63.8z"></path>
            <path fill="#EAF7F5" d="M66.2,48.4L66.2,48.4c-0.2,0-0.4-0.2-0.4-0.4v-0.7c0-0.2,0.2-0.4,0.4-0.4l0,0c0.2,0,0.4,0.2,0.4,0.4V48
			C66.6,48.2,66.4,48.4,66.2,48.4z"></path>
            <path fill="#EAF7F5" d="M74,48.4L74,48.4c-0.2,0-0.4-0.2-0.4-0.4v-0.7c0-0.2,0.2-0.4,0.4-0.4l0,0c0.2,0,0.4,0.2,0.4,0.4V48
			C74.4,48.2,74.2,48.4,74,48.4z"></path>
        </g>
        <path fill="#FFFFFF" d="M146.2,50.6H83.5c-0.9,0-1.7-0.8-1.7-1.7l0,0c0-0.9,0.8-1.7,1.7-1.7h62.7c0.9,0,1.7,0.8,1.7,1.7l0,0
		C147.9,49.9,147.1,50.6,146.2,50.6z"></path>
        <path fill="#5BD7C5" d="M103.1,44.7H83.5c-0.9,0-1.7-0.8-1.7-1.7l0,0c0-0.9,0.8-1.7,1.7-1.7h19.6c0.9,0,1.7,0.8,1.7,1.7l0,0
		C104.8,43.9,104,44.7,103.1,44.7z"></path>
        <g>
            <path fill="#8BE1D6" d="M75.4,74.7H64.8c-0.5,0-1-0.5-1-1v-6.9c0-0.5,0.5-1,1-1h10.6c0.6,0,1,0.5,1,1v6.9
			C76.4,74.2,75.9,74.7,75.4,74.7z"></path>
            <g>
                <path fill="#5BD7C5" d="M67.7,66.6L67,66.4c0.4-1.4,1.6-2.3,3.1-2.3c1.4,0,2.6,0.9,3,2.2l-0.7,0.2c-0.3-1-1.2-1.7-2.3-1.7
				C68.9,64.9,68,65.6,67.7,66.6z"></path>
            </g>
            <path fill="#B9EAE3" d="M63.8,71.7v-4.9c0-0.5,0.5-1,1-1h10.6c0.6,0,1,0.4,1,1v4.9H63.8z"></path>
            <path fill="#EAF7F5" d="M66.2,72.5L66.2,72.5c-0.2,0-0.4-0.2-0.4-0.4v-0.7c0-0.2,0.2-0.4,0.4-0.4l0,0c0.2,0,0.4,0.2,0.4,0.4V72
			C66.6,72.3,66.4,72.5,66.2,72.5z"></path>
            <path fill="#EAF7F5" d="M74,72.5L74,72.5c-0.2,0-0.4-0.2-0.4-0.4v-0.7c0-0.2,0.2-0.4,0.4-0.4l0,0c0.2,0,0.4,0.2,0.4,0.4V72
			C74.4,72.3,74.2,72.5,74,72.5z"></path>
        </g>
        <path fill="#FFFFFF" d="M140.1,74.7H83.5c-0.9,0-1.7-0.8-1.7-1.7l0,0c0-0.9,0.8-1.7,1.7-1.7h56.7c0.9,0,1.7,0.8,1.7,1.7l0,0
		C141.9,74,141.1,74.7,140.1,74.7z"></path>
        <path fill="#5BD7C5" d="M114.1,68.8H83.5c-0.9,0-1.7-0.8-1.7-1.7l0,0c0-0.9,0.8-1.7,1.7-1.7h30.6c0.9,0,1.7,0.8,1.7,1.7l0,0
		C115.8,68,115,68.8,114.1,68.8z"></path>
    </g>
    <g id="phone">
        <path fill="#8BE1D6" d="M223,123h-30c-2.2,0-4-1.8-4-4V51.7c0-2.2,1.8-4,4-4h30c2.2,0,4,1.8,4,4V119C227,121.2,225.2,123,223,123z"></path>
        <path fill="#FFFFFF" d="M225.7,112.9h-35.4c-0.2,0-0.3-0.1-0.3-0.3V55.5c0-0.2,0.1-0.3,0.3-0.3h35.4c0.2,0,0.3,0.1,0.3,0.3v57.1
		C226,112.8,225.8,112.9,225.7,112.9z"></path>
        <path fill="#5BD7C5" d="M208,120.5L208,120.5c-1.4,0-2.5-1.1-2.5-2.5l0,0c0-1.3,1.1-2.5,2.5-2.5h0c1.3,0,2.5,1.1,2.5,2.5l0,0
		C210.5,119.4,209.3,120.5,208,120.5z"></path>
        <path fill="#5BD7C5" d="M210.7,52.4h-5.4c-0.4,0-0.7-0.3-0.7-0.7v-0.1c0-0.4,0.3-0.7,0.7-0.7h5.4c0.4,0,0.7,0.3,0.7,0.7v0.1
		C211.4,52.1,211.1,52.4,210.7,52.4z"></path>
        <path fill="#EAF7F5" d="M221.8,73.4h-27.4c-0.6,0-1-0.4-1-1V59.9c0-0.5,0.4-1,1-1h27.4c0.6,0,1,0.5,1,1v12.5
		C222.8,72.9,222.3,73.4,221.8,73.4z"></path>
        <path fill="#EAF7F5" d="M221.8,91.4h-27.4c-0.6,0-1-0.4-1-1V77.9c0-0.6,0.4-1,1-1h27.4c0.6,0,1,0.4,1,1v12.5
		C222.8,90.9,222.3,91.4,221.8,91.4z"></path>
        <path fill="#EAF7F5" d="M221.8,109.4h-27.4c-0.6,0-1-0.4-1-1V95.9c0-0.6,0.4-1,1-1h27.4c0.6,0,1,0.4,1,1v12.5
		C222.8,108.9,222.3,109.4,221.8,109.4z"></path>
    </g>
    <ellipse id="alert" fill="#E7C665" cx="226" cy="50.6" rx="4.5" ry="4.5"></ellipse>
    <ellipse fill="#E7C665" cx="226" cy="50.6" rx="4.5" ry="4.5"></ellipse>
</svg>