<svg width="83px" height="106px" viewBox="0 0 83 106" version="1.1" xmlns="http://www.w3.org/2000/svg" xmlns:xlink="http://www.w3.org/1999/xlink">
    <defs></defs>
    <g id="Career" stroke="none" stroke-width="1" fill="none" fill-rule="evenodd">
        <g id="Department" transform="translate(-1012.000000, -516.000000)">
            <g id="TOP" transform="translate(-7.000000, -108.000000)">
                <g id="ilu" transform="translate(288.000000, 0.000000)">
                    <g id="robot-2" transform="translate(776.000000, 671.500000) rotate(-113.000000) translate(-776.000000, -671.500000) translate(723.000000, 644.000000)">
                        <path class="robot-eyes" d="M63.915,13 L43.116,13 C38.378,13 34.5,9.122 34.5,4.384 L34.5,2.122 C34.5,0.955 35.455,0 36.622,0 L69.378,0 C70.545,0 71.5,0.955 71.5,2.122 L71.5,5.415 C71.5,9.587 68.087,13 63.915,13" id="Fill-1" fill="#5BD7C5">
                        </path>
                        <path d="M89.7695,38.3076 C93.3745,38.3076 96.3075,35.3746 96.3075,31.7696 L96.3075,17.6026 C92.4615,17.4406 89.3815,14.2706 89.3815,10.3856 L89.3815,3.6146 L93.6185,3.6146 L93.6185,10.3856 C93.6185,11.4426 94.1705,12.3686 94.9995,12.9026 L94.9995,3.9996 C94.9995,1.7996 96.7995,-0.0004 98.9995,-0.0004 L101.9995,-0.0004 C104.2005,-0.0004 105.9995,1.7996 105.9995,3.9996 L105.9995,13.9996 C105.9995,16.2006 104.2005,17.9996 101.9995,17.9996 L101.6925,17.9996 L101.6925,31.7696 C101.6925,38.3436 96.3435,43.6926 89.7695,43.6926 L78.9995,43.6926 L78.9995,38.3076 L89.7695,38.3076 Z" id="Fill-9" fill="#00BFA5"></path>
                        <path d="M16.2305,38.3076 C12.6255,38.3076 9.6925,35.3746 9.6925,31.7696 L9.6925,17.6026 C13.5385,17.4406 16.6185,14.2706 16.6185,10.3856 L16.6185,3.6146 L12.3815,3.6146 L12.3815,10.3856 C12.3815,11.4426 11.8295,12.3686 11.0005,12.9026 L11.0005,3.9996 C11.0005,1.7996 9.2005,-0.0004 7.0005,-0.0004 L4.0005,-0.0004 C1.7995,-0.0004 0.0005,1.7996 0.0005,3.9996 L0.0005,13.9996 C0.0005,16.2006 1.7995,17.9996 4.0005,17.9996 L4.3075,17.9996 L4.3075,31.7696 C4.3075,38.3436 9.6565,43.6926 16.2305,43.6926 L27.0005,43.6926 L27.0005,38.3076 L16.2305,38.3076 Z" id="Fill-12" fill="#00BFA5"></path>
                        <path d="M84.4512,55 L21.5492,55 C19.0472,55 17.0002,52.953 17.0002,50.451 L17.0002,23.549 C17.0002,21.047 19.0472,19 21.5492,19 L84.4512,19 C86.9532,19 89.0002,21.047 89.0002,23.549 L89.0002,50.451 C89.0002,52.953 86.9532,55 84.4512,55" id="Fill-3" fill="#5BD7C5"></path>
                        <path d="M73,24.75 C73,35.52 64.27,44.25 53.5,44.25 C42.73,44.25 34,35.52 34,24.75 C34,13.98 42.73,5.25 53.5,5.25 C64.27,5.25 73,13.98 73,24.75" id="Fill-5" fill="#1C3C6D"></path>
                        <path class="robot-blink" d="M57.5,24.75 C57.5,26.959 55.709,28.75 53.5,28.75 C51.291,28.75 49.5,26.959 49.5,24.75 C49.5,22.541 51.291,20.75 53.5,20.75 C55.709,20.75 57.5,22.541 57.5,24.75" id="Fill-7" fill="#F9E3A2"></path>
                    </g>
                </g>
            </g>
        </g>
    </g>
</svg>