<svg width="88px" height="97px" viewBox="0 0 88 97" version="1.1" xmlns="http://www.w3.org/2000/svg" xmlns:xlink="http://www.w3.org/1999/xlink">
    <defs></defs>
    <g id="Career" stroke="none" stroke-width="1" fill="none" fill-rule="evenodd">
        <g id="Department" transform="translate(-1518.000000, -190.000000)">
            <g id="TOP" transform="translate(-7.000000, -108.000000)">
                <g id="ilu" transform="translate(288.000000, 0.000000)">
                    <g id="laska" transform="translate(1280.127104, 346.179060) rotate(175.000000) translate(-1280.127104, -346.179060) translate(1235.884385, 299.679060)">
                        <path d="M32.7952822,23.9123492 C32.7830267,23.9334262 32.7719968,23.9520235 32.7621924,23.9731005 C32.7585158,23.9792996 32.7548392,23.9854987 32.7511625,23.990458 C32.6996896,24.0834447 32.6665999,24.1739517 32.6408634,24.261979 C32.6396379,24.2706578 32.6371868,24.2793365 32.6347357,24.2867754 C32.5869394,24.4727487 32.590616,24.6475636 32.6359612,24.8025413 C32.7131706,25.180687 32.9546031,25.5489141 33.3161391,25.8911049 C34.4558967,26.9647906 36.1973973,27.6590908 37.52834,28.4773732 C38.426665,29.0290939 39.7257436,30.3358661 40.8716289,30.3482643 C42.8484342,30.3705811 44.7958265,27.4582397 45.9944102,25.9084624 C48.3903522,22.8027087 50.258084,19.1452343 51.2397462,15.3984928 C52.4322022,10.8483467 50.8414438,6.3415944 45.8755323,7.38676419 C43.0800624,7.97567956 40.7895173,10.4156489 39.1141962,12.8866138 C36.7586972,16.3618344 34.8541991,20.2561147 32.7952822,23.9123492" id="Fill-1" fill="#5BD7C5"></path>
                        <path d="M55.1010345,19.949623 C55.0940487,19.9717659 55.0893915,19.9939089 55.08357,20.0160518 C55.0812414,20.0234328 55.0800771,20.0283535 55.0777485,20.0345043 C55.0498053,20.136608 55.0393266,20.2325608 55.0358337,20.3260533 C55.0346694,20.3334343 55.0346694,20.3408153 55.0346694,20.3494264 C55.0311765,20.540102 55.0742556,20.7086345 55.1499351,20.8476431 C55.3059512,21.1970098 55.6109978,21.49717 56.0208314,21.7407426 C57.3155328,22.5132859 59.08294,22.7740808 60.4964,23.2526148 C61.4511259,23.5736878 62.9437583,24.531986 64.010257,24.2736514 C65.8475222,23.8283319 67.0106578,20.5487131 67.7767671,18.7649745 C69.3136429,15.1925766 70.2357684,11.2105339 70.3184337,7.35027743 C70.4185635,2.66212025 67.9479192,-1.32484313 63.5759732,0.85992915 C61.113479,2.09009372 59.5300311,4.99451227 58.5229118,7.78329536 C57.1071231,11.7025997 56.2012978,15.9232943 55.1010345,19.949623" id="Fill-3" fill="#5BD7C5"></path>
                        <path d="M43.4671957,44.1990641 C43.4648574,47.54192 48.8464748,49.935197 51.2303805,51.3015757 C55.3411272,53.6574012 59.7394858,55.2194946 64.3412773,56.1666573 C64.9644366,56.2947175 65.4087152,55.5867618 65.3373968,55.0334448 C65.2134664,54.0717848 65.0883669,53.1101248 64.9632674,52.1484648 C64.9585908,52.108597 64.9468993,52.0747697 64.9387152,52.0373181 C66.0225213,46.7433556 66.9648596,41.4216064 67.7142876,36.0660299 C68.088417,33.3960944 68.4192876,30.7201184 68.7068996,28.0393099 C68.9243623,26.0084676 69.5381684,23.5644497 69.1500091,21.5227343 C68.5630936,18.435999 64.7925709,16.2299799 62.0614263,15.5715569 C59.2133664,14.8853472 56.8049084,16.2372286 54.9798585,18.4456639 C52.2732662,21.7196572 50.5359029,26.1921011 48.8008778,30.0459899 C47.6036638,32.7050523 46.4847831,35.4027745 45.4454049,38.1319076 C44.7836635,39.8715941 43.4683649,42.3047389 43.4671957,44.1990641" id="Fill-6" fill="#1C3C6D"></path>
                        <path d="M11.0129188,43.2880237 C10.0142124,46.4974067 14.3956718,50.5348594 16.2447388,52.6160586 C19.4335909,56.2064026 23.132893,59.1266962 27.2059799,61.5227088 C27.7584806,61.846097 28.3892426,61.3095666 28.4873611,60.7546618 C28.6555643,59.7906219 28.8237675,58.8278071 28.9931388,57.8625422 C28.9989792,57.8221187 28.9989792,57.786595 29.0013153,57.7498464 C31.6049605,53.0129441 34.0812852,48.2049944 36.3870706,43.3014982 C37.5364591,40.8577123 38.6461329,38.3931022 39.7172601,35.9113427 C40.527906,34.0298113 41.8373211,31.8800147 42.0779451,29.7939157 C42.4412173,26.6396557 39.5291996,23.3028774 37.1404807,21.7888326 C34.648971,20.2110901 31.9658965,20.7316962 29.5806819,22.2641153 C26.0437426,24.5339575 23.0663125,28.2712962 20.276943,31.4145316 C18.3507829,33.5814776 16.488867,35.8108963 14.6923635,38.0978879 C13.5476474,39.5555848 11.5782684,41.4677401 11.0129188,43.2880237" id="Fill-8" fill="#1C3C6D"></path>
                        <path d="M86.1697151,38.5063253 C86.1697151,38.5063253 88.9894387,32.8591041 88.1296502,31.1919171 C87.2698617,29.5247302 86.1601486,26.555846 84.2109758,26.2883582 C82.2606071,26.0220233 78.7807955,28.6450181 78.4830384,29.1673111 C78.1852814,29.6907571 77.425941,36.3479754 77.425941,36.3479754 L86.1697151,38.5063253 Z" id="Fill-10" fill="#F9BFBA"></path>
                        <path d="M20.833354,14.0325249 C20.833354,14.0325249 25.666591,12.072527 25.7820608,10.0521267 C25.8963524,8.03295902 25.7007606,6.05200518 24.0193786,4.93147808 C22.3368182,3.81095098 16.2451958,5.12871057 15.3721025,6.77929999 C14.4978309,8.42988941 13.5834984,11.890087 13.5834984,11.890087 L20.833354,14.0325249 Z" id="Fill-12" fill="#F9BFBA"></path>
                        <path d="M77.6859999,36.309357 C77.2646936,36.6704623 76.8685222,37.0506991 76.5070606,37.451263 C72.4615632,41.9339916 70.5716696,49.0114176 63.5626658,49.5650328 C57.4621036,50.0469052 50.9701575,46.5446614 45.6774979,43.9176797 C39.5494072,40.8769811 33.0550673,37.518223 27.6032209,33.3451841 C24.8515646,31.2395333 22.8419817,28.72734 22.3847687,25.2119434 C22.0101412,22.329079 22.4027221,19.4079518 21.8210322,16.5418274 C21.3757881,14.3405196 20.2686623,12.0734475 18.598997,10.5429346 C18.1310119,10.2966177 17.6223325,10.1160651 17.0621867,10.0263866 C15.6749881,9.80398393 13.0657619,10.0682365 11.8078277,11.1348126 C9.90117759,14.3728038 8.15610801,17.6944949 6.63006979,21.1931515 C3.37930916,28.6579886 -1.19042724,38.6469762 0.285341482,47.3254621 C0.515144884,48.0393028 0.786839531,48.7268379 1.09444096,49.3904587 C2.31886221,51.5905708 3.75992105,53.7117659 5.19619231,55.8640496 C5.93946269,56.6603945 6.71983674,57.4184766 7.51098283,58.1598188 C12.6145334,61.3332415 18.0771518,63.9889203 23.5373763,66.4676336 C34.8934945,71.6187658 47.4465053,78.0086568 60.2065786,77.9357183 C64.5584805,77.9118041 68.5525115,77.0281721 72.1204487,75.3912408 C73.3807768,74.2672704 74.672224,73.1791715 75.7841374,71.9033456 C77.6991657,69.7044291 79.1031209,67.1659301 80.2820602,64.5126427 C82.5753066,59.3471619 84.3957805,54.0262385 85.4861497,48.4745424 C86.1683786,44.9950172 86.6243947,41.4832077 86.9343899,37.9570497 C84.4101432,35.6014948 81.1091131,34.4225217 77.6859999,36.309357" id="Fill-14" fill="#87B8F5"></path>
                        <path d="M15.3340296,67.1031956 C16.2351681,69.4458783 17.5036122,71.4104396 19.0295243,72.9849515 C17.8083222,73.6648543 16.6260946,74.4616527 15.4521343,75.3240557 C13.2920001,76.90811 10.8259748,78.6794358 10.8673114,81.7771685 C10.906286,84.7365351 12.910522,87.1973062 14.8155501,88.9567038 C16.6060168,90.6123269 18.9917308,92.9406958 21.5463346,92.8917905 C23.4312849,92.857199 25.4792197,92.2667571 27.3535406,91.9542403 C28.7141063,91.7276061 30.480952,91.7228348 31.7706548,91.042932 C33.8717367,89.9383881 34.7551595,87.0052634 35.199233,84.7341494 C35.6834621,82.2614502 35.5594522,79.6277214 34.4516306,77.4842382 C41.0276979,77.2086987 47.7821033,74.0215051 52.0078879,67.2511043 C57.3450374,58.6974496 56.9257659,47.8512103 50.4760705,41.927706 C43.5244304,35.5413907 31.8946647,33.0686915 23.2600332,39.7508242 C15.1863988,46.0023517 11.7483722,57.7885269 15.3340296,67.1031956" id="Fill-16" fill="#F9E3A2"></path>
                    </g>
                </g>
            </g>
        </g>
    </g>
</svg>