<svg width="183px" height="188px" viewBox="0 0 183 188" version="1.1" xmlns="http://www.w3.org/2000/svg" xmlns:xlink="http://www.w3.org/1999/xlink">
    <defs>
        <polygon id="path-1" points="0.489543041 0.500685126 50.1646099 0.500685126 50.1646099 63.4448582 0.489543041 63.4448582"></polygon>
    </defs>
    <g id="Career" stroke="none" stroke-width="1" fill="none" fill-rule="evenodd">
        <g id="Department" transform="translate(-1200.000000, -461.000000)">
            <g id="TOP" transform="translate(-7.000000, -108.000000)">
                <g id="ilu" transform="translate(288.000000, 0.000000)">
                    <g id="biurka-" transform="translate(1237.165320, 567.631440) rotate(47.000000) translate(-1237.165320, -567.631440) translate(805.665320, 198.631440)">
                        <g id="biurko-1" transform="translate(346.794343, 599.641074) rotate(-31.000000) translate(-346.794343, -599.641074) translate(242.294343, 502.141074)">
                            <polygon id="Fill-1" fill="#00BFA5" transform="translate(75.971223, 144.216559) rotate(84.000000) translate(-75.971223, -144.216559) " points="109.879283 130.918324 72.2746674 180.270698 42.0631629 157.514793 79.6664272 108.162419"></polygon>
                            <polygon id="Fill-3" fill="#B9EAE3" transform="translate(104.299475, 97.432020) rotate(84.000000) translate(-104.299475, -97.432020) " points="124.651809 1.71686379 17.1686379 142.832563 83.9457947 193.147177 191.430313 52.0328173 124.654503 1.71686379"></polygon>
                            <g id="Group-128" transform="translate(63.695639, 164.166091) rotate(84.000000) translate(-63.695639, -164.166091) translate(38.226842, 132.110535)">
                                <mask id="mask-2" fill="white">
                                    <use xlink:href="#path-1"></use>
                                </mask>
                                <g id="Clip-127"></g>
                                <path d="M49.2502234,7.79734499 L8.63018375,61.6473719 C7.12519185,63.6420665 4.26798549,64.0377752 2.28053849,62.5262758 C0.293091477,61.0147764 -0.100913526,58.1438696 1.40407838,56.149175 L42.024118,2.29914809 C43.5291099,0.303107452 46.3876565,-0.0926012109 48.3737633,1.42024415 L48.3751035,1.42024415 C50.3612103,2.93174357 50.7565555,5.80130435 49.2502234,7.79734499" id="Fill-126" fill="#5BD7C5" mask="url(#mask-2)"></path>
                            </g>
                            <g id="klawiatura" transform="translate(96.685300, 89.496439) rotate(-135.000000) translate(-96.685300, -89.496439) translate(61.116807, 54.806180)">
                                <path d="M49.5561879,19.4013153 L9.04411777,37.1229661 L0.872235931,18.8054001 C0.550096268,18.0736072 0.886939401,17.2111846 1.62077623,16.8899422 L39.4634982,0.335960922 C40.197335,0.0147185121 41.0621664,0.351956395 41.3829693,1.08374927 L49.5561879,19.4013153 Z" id="Fill-4" fill="#FFFFFF"></path>
                                <polygon id="Fill-8" fill="#B9EDE6" points="14.3886955 26.1780639 17.2892891 24.9090897 18.1313969 26.8205487 15.2294666 28.0908558"></polygon>
                                <polygon id="Fill-10" fill="#B9EDE6" points="8.49434166 28.7568007 13.7314504 26.4654492 14.5722215 28.3782412 9.33511281 30.6695926"></polygon>
                                <polygon id="Fill-12" fill="#B9EDE6" points="35.7416094 16.8369744 38.642203 15.5693332 39.4843109 17.4807922 36.5823805 18.7510993"></polygon>
                                <polygon id="Fill-14" fill="#B9EDE6" points="32.1825676 18.3938671 35.0831613 17.1248929 35.9252691 19.0376849 33.0233388 20.307992"></polygon>
                                <polygon id="Fill-16" fill="#B9EDE6" points="39.3006512 15.2814147 43.4243062 13.4765922 44.266414 15.3893841 40.1414223 17.1942066"></polygon>
                                <polygon id="Fill-18" fill="#B9EDE6" points="25.0651524 21.5075192 27.9657461 20.238545 28.8078539 22.1513369 25.9059236 23.4216441"></polygon>
                                <polygon id="Fill-20" fill="#B9EDE6" points="21.5061107 23.0644118 24.4067043 21.7954377 25.2488121 23.7068966 22.3468818 24.9772038"></polygon>
                                <polygon id="Fill-22" fill="#B9EDE6" points="17.9477372 24.6213045 20.8483309 23.3523303 21.6904387 25.2637893 18.7885084 26.5340964"></polygon>
                                <polygon id="Fill-24" fill="#B9EDE6" points="28.6241942 19.9506265 31.5247878 18.6816523 32.3668957 20.5944443 29.4649654 21.8647514"></polygon>
                                <polygon id="Fill-26" fill="#B9EDE6" points="36.1280433 12.8654318 33.2274497 14.134406 32.3853418 12.222947 35.2872722 10.9526399"></polygon>
                                <polygon id="Fill-28" fill="#B9EDE6" points="39.6864167 11.3085392 36.7858231 12.5775133 35.9437153 10.6660543 38.8456456 9.39574722"></polygon>
                                <polygon id="Fill-30" fill="#B9EDE6" points="43.1442719 12.8381062 41.4667396 13.572565 39.503158 9.10849519 41.1806903 8.3740364"></polygon>
                                <polygon id="Fill-32" fill="#B9EDE6" points="14.7751294 22.2065213 11.8745358 23.4754955 11.0324279 21.5640365 13.9343582 20.2937294"></polygon>
                                <polygon id="Fill-34" fill="#B9EDE6" points="18.3340375 20.6497619 15.4321072 21.9187361 14.591336 20.0072771 17.4932663 18.73697"></polygon>
                                <polygon id="Fill-36" fill="#B9EDE6" points="11.2160876 23.763414 7.09243262 25.5682365 6.25032479 23.6554445 10.3753165 21.850622"></polygon>
                                <polygon id="Fill-38" fill="#B9EDE6" points="25.4515864 17.5359766 22.5509927 18.8049507 21.7088849 16.8934918 24.6108152 15.6231846"></polygon>
                                <polygon id="Fill-40" fill="#B9EDE6" points="29.0106281 15.9792172 26.1086978 17.2481914 25.2679267 15.3367324 28.1685203 14.0664252"></polygon>
                                <polygon id="Fill-42" fill="#B9EDE6" points="32.5690016 14.4223245 29.6684079 15.6912987 28.8263001 13.7798397 31.7282304 12.5095326"></polygon>
                                <polygon id="Fill-44" fill="#B9EDE6" points="21.8925446 19.0928693 18.991951 20.3618434 18.1498431 18.4503844 21.0517734 17.1800773"></polygon>
                                <polygon id="Fill-46" fill="#B9EDE6" points="36.0268567 15.9517583 33.1249264 17.2207325 32.2841552 15.3092735 35.1860856 14.0389664"></polygon>
                                <polygon id="Fill-48" fill="#B9EDE6" points="42.5660245 13.0907014 40.3538206 14.0597605 39.5130495 12.1469685 41.7252534 11.1779095"></polygon>
                                <polygon id="Fill-50" fill="#B9EDE6" points="39.5852301 14.3949989 36.6846365 15.6639731 35.8425287 13.7525141 38.744459 12.482207"></polygon>
                                <polygon id="Fill-52" fill="#B9EDE6" points="14.6739428 25.2929811 11.7733492 26.5619552 10.9312413 24.6491633 13.8331716 23.3788562"></polygon>
                                <polygon id="Fill-54" fill="#B9EDE6" points="18.2323162 23.7360884 15.3317226 25.0050626 14.4896147 23.0922706 17.3915451 21.8219635"></polygon>
                                <polygon id="Fill-56" fill="#B9EDE6" points="11.114901 26.8497404 8.21430739 28.1187146 7.37219955 26.2059227 10.2741299 24.9356155"></polygon>
                                <polygon id="Fill-58" fill="#B9EDE6" points="25.3503998 20.6224363 22.4498061 21.8914105 21.6076983 19.9799515 24.5096286 18.7096444"></polygon>
                                <polygon id="Fill-60" fill="#B9EDE6" points="28.9087732 19.0655437 26.0081795 20.3345178 25.1660717 18.4230588 28.068002 17.1527517"></polygon>
                                <polygon id="Fill-62" fill="#B9EDE6" points="32.4678149 17.508651 29.5672213 18.7776251 28.7251135 16.8661662 31.6270438 15.595859"></polygon>
                                <polygon id="Fill-64" fill="#B9EDE6" points="21.791358 22.1791957 18.8907643 23.4481699 18.0486565 21.5353779 20.9505868 20.2664038"></polygon>
                                <polygon id="Fill-66" fill="#B9EDE6" points="38.2707399 21.0532477 35.3701463 22.3222219 34.5280384 20.4107629 37.4299688 19.1404558"></polygon>
                                <polygon id="Fill-68" fill="#B9EDE6" points="41.8297817 19.496355 38.9278514 20.7653292 38.0870802 18.8538702 40.9890105 17.5835631"></polygon>
                                <polygon id="Fill-70" fill="#B9EDE6" points="45.3881551 17.9395957 42.4875615 19.2085698 41.6454536 17.2971108 44.5473839 16.0268037"></polygon>
                                <polygon id="Fill-72" fill="#B9EDE6" points="16.917826 30.3943372 14.0172324 31.6633114 13.1751245 29.7505194 16.0770548 28.4802123"></polygon>
                                <polygon id="Fill-74" fill="#B9EDE6" points="20.4768678 28.8374445 17.5762741 30.1064187 16.7341663 28.1949597 19.6360966 26.9246526"></polygon>
                                <polygon id="Fill-76" fill="#B9EDE6" points="13.3587842 31.9512299 10.4581906 33.220204 9.61608276 31.3074121 12.5180131 30.037105"></polygon>
                                <polygon id="Fill-78" fill="#B9EDE6" points="27.594283 25.7237925 24.6936893 26.9927666 23.8515815 25.0813076 26.7535118 23.8110005"></polygon>
                                <polygon id="Fill-80" fill="#B9EDE6" points="31.1533247 24.1668998 28.2513944 25.435874 27.4106232 23.524415 30.3125536 22.2541078"></polygon>
                                <polygon id="Fill-82" fill="#B9EDE6" points="34.7116981 22.6101404 31.8111045 23.8791146 30.9689967 21.9676556 33.870927 20.6973485"></polygon>
                                <polygon id="Fill-84" fill="#B9EDE6" points="24.0352412 27.2806851 21.1346475 28.5496593 20.2925397 26.6382003 23.19447 25.3678932"></polygon>
                                <polygon id="Fill-86" fill="#B9EDE6" points="33.7823052 10.8504022 30.8817115 12.1193763 30.0396037 10.2079173 32.941534 8.93761022"></polygon>
                                <polygon id="Fill-88" fill="#B9EDE6" points="37.3413469 9.29350949 34.4407533 10.5624837 33.5986455 8.65102467 36.5005758 7.38071754"></polygon>
                                <polygon id="Fill-90" fill="#B9EDE6" points="40.9003887 7.73675011 37.9984584 9.00572428 37.1576872 7.09426529 40.0596175 5.82395816"></polygon>
                                <polygon id="Fill-92" fill="#B9EDE6" points="36.2193385 6.74223159 33.3187449 8.01120576 32.476637 6.09974677 35.3785673 4.82943965"></polygon>
                                <polygon id="Fill-94" fill="#B9EDE6" points="39.7777119 5.18667187 36.8771183 6.45564604 36.0350105 4.54285409 38.9369408 3.27254697"></polygon>
                                <polygon id="Fill-96" fill="#B9EDE6" points="32.6602967 8.29899097 29.7597031 9.56796514 28.9175953 7.65650615 31.8195256 6.38619903"></polygon>
                                <polygon id="Fill-98" fill="#B9EDE6" points="11.3073828 17.6400804 8.40678918 18.9090546 7.56468134 16.9975956 10.4666117 15.7272885"></polygon>
                                <polygon id="Fill-100" fill="#B9EDE6" points="14.8664246 16.0833211 11.9658309 17.3522952 11.1237231 15.4408362 14.0256534 14.1705291"></polygon>
                                <polygon id="Fill-102" fill="#B9EDE6" points="7.74900939 19.1969731 4.84841575 20.4659473 4.00630792 18.5544883 6.90823824 17.2841812"></polygon>
                                <polygon id="Fill-104" fill="#B9EDE6" points="12.4293913 20.1914916 9.52879761 21.4604658 8.68668978 19.5476739 11.5886201 18.2773667"></polygon>
                                <polygon id="Fill-106" fill="#B9EDE6" points="15.988433 18.634599 13.0878394 19.9035731 12.2457315 17.9907812 15.1476619 16.7204741"></polygon>
                                <polygon id="Fill-108" fill="#B9EDE6" points="8.87101783 21.7470514 5.97042419 23.0160255 5.12831635 21.1045665 8.03024667 19.8342594"></polygon>
                                <polygon id="Fill-110" fill="#B9EDE6" points="23.1058482 15.5209469 20.2052546 16.7899211 19.3631467 14.8771291 22.2650771 13.608155"></polygon>
                                <polygon id="Fill-112" fill="#B9EDE6" points="26.66489 13.9640542 23.7642963 15.2330284 22.9221885 13.3215694 25.8241188 12.0512623"></polygon>
                                <polygon id="Fill-114" fill="#B9EDE6" points="30.2239317 12.4072948 27.3220014 13.676269 26.4812303 11.76481 29.3831606 10.4945029"></polygon>
                                <polygon id="Fill-116" fill="#B9EDE6" points="19.5474748 17.0778396 16.6468811 18.3468137 15.8047733 16.4340218 18.7067036 15.1637147"></polygon>
                                <polygon id="Fill-118" fill="#B9EDE6" points="29.0072864 9.89760517 15.5242044 15.7959357 14.6820965 13.8831438 28.1665153 7.98481323"></polygon>
                                <path d="M49.5595447,21.8252596 C32.9154729,30.0967355 42.5599872,62.1539228 36.8429678,77.1179403" id="Path-51" stroke="#FFFFFF" transform="translate(43.201256, 49.471600) rotate(-60.000000) translate(-43.201256, -49.471600) "></path>
                            </g>
                            <rect id="Rectangle-11" fill="#FFFFFF" x="117.60517" y="121.038897" width="9.44275086" height="14.5933422" rx="4.72137543"></rect>
                            <circle id="Oval-3" fill="#00BFA5" cx="39.4878672" cy="80.6925982" r="17.1686379"></circle>
                            <g id="pizza" transform="translate(47.252589, 80.032399) rotate(-40.000000) translate(-47.252589, -80.032399) translate(39.348480, 67.737117)">
                                <path d="M7.72588706,0 C12.8764784,14.3835033 15.4517741,21.575255 15.4517741,21.575255 C10.3011828,25.4477366 5.15059138,25.4477366 0,21.575255 L7.72588706,0 Z" id="Triangle" fill="#F9E3A2"></path>
                                <rect id="Rectangle-6" fill="#F7A69D" x="6.50601016" y="5.8087225" width="4.06625635" height="4.1490875" rx="2.03312817"></rect>
                                <rect id="Rectangle-6" fill="#F7A69D" x="2.43975381" y="14.936715" width="4.06625635" height="4.1490875" rx="2.03312817"></rect>
                                <rect id="Rectangle-6" fill="#F7A69D" x="8.1325127" y="12.4472625" width="4.06625635" height="4.1490875" rx="2.03312817"></rect>
                                <rect id="Rectangle-6" fill="#F7A69D" x="8.1325127" y="18.255985" width="3.25300508" height="3.31927" rx="1.62650254"></rect>
                                <rect id="Rectangle-6" fill="#F7A69D" x="4.87950762" y="10.7876275" width="2.43975381" height="2.4894525" rx="1.2198769"></rect>
                                <path d="M8.94576397,8.29817499 C7.31926143,8.29817499 6.77709392,9.12799249 7.31926143,10.7876275" id="Path-34" stroke="#FFFFFF"></path>
                                <path d="M6.50601016,19.91562 C4.87950762,19.91562 4.33734011,20.7454375 4.87950762,22.4050725" id="Path-34" stroke="#FFFFFF" transform="translate(5.591102, 21.160346) rotate(-97.000000) translate(-5.591102, -21.160346) "></path>
                                <path d="M8.94576397,14.1068975 C7.31926143,14.1068975 6.77709392,14.936715 7.31926143,16.59635" id="Path-34" stroke="#FFFFFF" transform="translate(8.030856, 15.351624) rotate(64.000000) translate(-8.030856, -15.351624) "></path>
                            </g>
                            <g id="pizza" transform="translate(31.986611, 76.763303) rotate(24.000000) translate(-31.986611, -76.763303) translate(24.082501, 64.468021)">
                                <path d="M7.72588706,0 C12.8764784,14.3835033 15.4517741,21.575255 15.4517741,21.575255 C10.3011828,25.4477366 5.15059138,25.4477366 0,21.575255 L7.72588706,0 Z" id="Triangle" fill="#F9E3A2"></path>
                                <rect id="Rectangle-6" fill="#F7A69D" x="6.50601016" y="5.8087225" width="4.06625635" height="4.1490875" rx="2.03312817"></rect>
                                <rect id="Rectangle-6" fill="#F7A69D" x="2.43975381" y="14.936715" width="4.06625635" height="4.1490875" rx="2.03312817"></rect>
                                <rect id="Rectangle-6" fill="#F7A69D" x="8.1325127" y="12.4472625" width="4.06625635" height="4.1490875" rx="2.03312817"></rect>
                                <rect id="Rectangle-6" fill="#F7A69D" x="8.1325127" y="18.255985" width="3.25300508" height="3.31927" rx="1.62650254"></rect>
                                <rect id="Rectangle-6" fill="#F7A69D" x="4.87950762" y="10.7876275" width="2.43975381" height="2.4894525" rx="1.2198769"></rect>
                                <path d="M8.94576397,8.29817499 C7.31926143,8.29817499 6.77709392,9.12799249 7.31926143,10.7876275" id="Path-34" stroke="#FFFFFF"></path>
                                <path d="M6.50601016,19.91562 C4.87950762,19.91562 4.33734011,20.7454375 4.87950762,22.4050725" id="Path-34" stroke="#FFFFFF" transform="translate(5.591102, 21.160346) rotate(-97.000000) translate(-5.591102, -21.160346) "></path>
                                <path d="M8.94576397,14.1068975 C7.31926143,14.1068975 6.77709392,14.936715 7.31926143,16.59635" id="Path-34" stroke="#FFFFFF" transform="translate(8.030856, 15.351624) rotate(64.000000) translate(-8.030856, -15.351624) "></path>
                            </g>
                            <path d="M115.008822,129.72563 C112.378494,130.15125 111.479209,133.315975 113.751538,134.405255 C113.812633,134.460103 113.881232,134.51166 113.960549,134.557732 C116.198579,135.844465 119.746413,135.906991 121.482815,138.048254 C119.539545,137.659931 117.515886,136.44121 115.698023,137.54475 C115.050624,137.937462 115.105288,138.773344 115.544748,139.28343 C115.851298,139.638844 116.17607,139.890048 116.566224,140.141251 C116.767733,140.271789 116.96281,140.317862 117.143953,140.307989 C120.48492,142.395501 124.45292,141.774623 128.186185,142.47887 C128.504525,142.539203 128.771417,142.463513 128.980428,142.315423 C129.561372,142.66645 130.433861,142.500809 130.584992,141.649569 C130.597854,141.576073 130.607501,141.502577 130.619291,141.429081 C130.80365,141.314997 130.976219,141.184459 131.118775,141.012236 C132.358909,139.503918 132.737273,135.678824 131.13914,134.301044 C131.082332,134.033386 130.910836,133.787667 130.586064,133.634093 C128.009329,132.403306 125.336127,131.550969 122.582536,130.835752 C120.174082,130.209389 117.526605,129.319755 115.008822,129.72563" id="Fill-138" fill="#F9BFBA" transform="translate(122.326545, 136.061456) rotate(84.000000) translate(-122.326545, -136.061456) "></path>
                            <path d="M74.720114,107.904995 C74.1831934,107.440344 73.2151298,107.67531 72.8455785,108.223123 C71.4838624,110.237491 72.1145097,112.602986 71.6244526,114.717676 C70.2975493,113.529648 69.1875565,111.397798 68.301169,110.182049 C67.0894158,108.52145 65.8776625,106.860851 64.6672482,105.200252 C64.1356835,104.470274 63.0337245,104.657719 62.5356336,105.286054 C61.3519984,106.780329 59.8898608,108.615172 59.3663298,110.490937 C58.838782,112.378581 59.9755538,114.209464 60.8244506,115.843663 C63.1595861,120.330449 66.3168394,124.19418 70.0873335,127.58534 C70.4635796,127.924588 70.8612489,127.968149 71.20536,127.840106 C71.3071205,127.844067 71.41022,127.840106 71.5119805,127.809746 C73.4922932,127.254013 75.2610513,126.357711 76.8035262,124.999399 C77.7461497,124.1691 77.0766728,122.854349 76.142083,122.658984 C76.1193208,122.540181 76.0858469,122.418738 76.0229161,122.292015 C75.2101711,120.653857 75.8006497,119.09358 76.0028318,117.385459 C76.1514557,116.115589 76.1474388,114.841759 76.0697795,113.566609 C75.9599852,111.770047 76.198319,109.182786 74.720114,107.904995" id="Fill-140" fill="#F9BFBA" transform="translate(68.245336, 116.317522) rotate(84.000000) translate(-68.245336, -116.317522) "></path>
                            <path d="M86.1196849,109.887976 C79.4665437,114.210925 75.9272118,122.162951 72.7371296,129.127181 C69.0238418,137.23355 64.6629032,143.762935 58.0177907,149.760842 C52.7951017,154.474347 47.4252192,160.431991 48.1357619,167.911593 C48.7834128,174.724164 54.7768599,179.218904 61.2894983,179.405458 C68.5702186,179.613486 75.0186271,175.020771 80.4112576,170.214661 C86.6964153,164.616703 92.2803973,158.145029 96.7925437,151.011693 C100.810923,144.662151 105.15179,137.193286 106.254402,129.721737 C106.493926,128.10449 106.505969,126.4604 106.303913,124.865969 C106.42702,122.683691 106.262431,120.493361 105.767326,118.316452 C105.681686,116.237517 105.154466,114.210925 104.00502,112.354781 C100.194049,106.199846 92.0475641,106.03745 86.1196849,109.887976" id="Fill-142" fill="#012C6D" transform="translate(77.258871, 143.358127) rotate(84.000000) translate(-77.258871, -143.358127) "></path>
                            <path d="M96.6672125,116.67752 C95.6852921,116.418808 92.7420484,115.152922 91.9967959,116.4949 C91.6971843,117.033074 91.9351112,117.865931 92.0685517,118.419324 C92.3392092,119.538561 92.696729,120.625978 93.1171924,121.688492 C93.2027957,121.902932 93.4306516,121.955505 93.6005994,121.830991 C94.9992066,120.798913 95.9584674,118.903543 96.9429056,117.439818 C97.0385799,117.29732 97.0108847,117.121617 96.9215048,117.005405 C96.9063983,116.861523 96.8283482,116.719024 96.6672125,116.67752" id="Fill-144" fill="#F9BFBA" transform="translate(94.427509, 118.892818) rotate(84.000000) translate(-94.427509, -118.892818) "></path>
                            <path d="M89.7935019,116.81548 C80.9227477,113.971315 69.0095227,117.746274 65.7250979,127.099356 C65.083452,128.926421 64.8428348,130.920789 64.9551228,132.940385 C63.9792864,135.978411 64.2185668,139.402829 65.9189284,142.523178 C66.2557925,143.141937 66.6501373,143.727501 67.0725542,144.290491 C68.8303966,148.445204 72.4503487,151.807215 77.289428,153.065977 C87.3178183,155.676448 96.5441512,149.362719 100.253666,140.211464 C102.03557,135.81509 103.14642,130.266179 100.887292,125.863167 C98.7003487,121.600902 94.3384935,118.272086 89.7935019,116.81548" id="Fill-146" fill="#F9E3A2" transform="translate(83.267894, 134.773808) rotate(84.000000) translate(-83.267894, -134.773808) "></path>
                            <path d="M126.189489,143.358127 C124.229237,144.202009 120.728787,144.202009 115.68814,143.358127 C112.88778,147.296244 109.38733,150.531125 105.186791,153.062772 C103.999659,157.201327 105.119803,162.26462 108.547222,168.252652 C120.028697,162.62677 125.909453,154.328595 126.189489,143.358127 Z" id="Path-32" fill="#012C6D"></path>
                            <path d="M123.614193,121.038897 C123.614193,120.625121 139.134822,88.7643283 130.379596,63.5239603" id="Path-33" stroke="#FFFFFF"></path>
                            <g id="monitory" transform="translate(54.081209, 32.620412)">
                                <rect id="Rectangle-10" fill="#012C6D" transform="translate(32.300011, 31.651489) rotate(9.000000) translate(-32.300011, -31.651489) " x="0.828205421" y="29.1526872" width="62.943612" height="4.99760351"></rect>
                                <rect id="Rectangle-2" fill="#012C6D" transform="translate(32.191518, 26.425003) rotate(9.000000) translate(-32.191518, -26.425003) " x="20.1825392" y="23.5097339" width="24.0179572" height="5.83053743"></rect>
                                <polygon id="Rectangle-10" fill="#012C6D" transform="translate(91.450035, 61.841689) rotate(39.000000) translate(-91.450035, -61.841689) " points="59.9782289 59.3428874 122.921841 59.3428874 122.921841 64.3404909 59.9782289 64.3404909"></polygon>
                                <rect id="Rectangle-2" fill="#012C6D" transform="translate(93.977494, 58.176400) rotate(39.000000) translate(-93.977494, -58.176400) " x="81.9685157" y="55.2611312" width="24.0179572" height="5.83053743"></rect>
                                <path d="M115.948759,55.8065726 C110.565424,62.4700439 103.111575,57.0559734 95.2436234,59.6531981" id="Path-50" stroke="#012C6D"></path>
                                <path d="M25.7512035,0.36847565 C13.6182899,9.9737036 12.6870617,12.2769384 21.8645422,24.2352047" id="Path-49" stroke="#012C6D"></path>
                            </g>
                        </g>
                    </g>
                </g>
            </g>
        </g>
    </g>
</svg>