<svg width="179px" height="185px" viewBox="0 0 179 185" version="1.1" xmlns="http://www.w3.org/2000/svg" xmlns:xlink="http://www.w3.org/1999/xlink">
    <defs>
        <polygon id="path-1" points="0 0.731101762 61.7990928 0.731101762 61.7990928 49.6147801 0 49.6147801"></polygon>
    </defs>
    <g id="Career" stroke="none" stroke-width="1" fill="none" fill-rule="evenodd">
        <g id="Department" transform="translate(-1274.000000, -356.000000)">
            <g id="TOP" transform="translate(-7.000000, -108.000000)">
                <g id="ilu" transform="translate(288.000000, 0.000000)">
                    <g id="biurka-" transform="translate(1237.165320, 567.631440) rotate(47.000000) translate(-1237.165320, -567.631440) translate(805.665320, 198.631440)">
                        <g id="biurko3" transform="translate(317.511893, 474.401468) rotate(53.000000) translate(-317.511893, -474.401468) translate(231.005804, 379.991270)">
                            <polygon id="Fill-2" fill="#00BFA5" points="85.0751207 61.1458761 36.4919786 97.9652905 7.73410188 60.0203976 56.317244 23.2023056"></polygon>
                            <polygon id="Fill-3" fill="#B9EDE6" points="1.28901698 138.731831 66.9846225 188.196479 172.728275 49.4659657 107.033995 0"></polygon>
                            <g id="Group-168" transform="translate(0.000000, 14.171677)">
                                <g id="komp" transform="translate(46.771893, 73.650710)">
                                    <path d="M51.6100897,26.5008101 L11.5545741,44.03038 L0.307628155,18.4499975 C-0.0108811253,17.7261364 0.322165923,16.8730614 1.04773271,16.5553008 L38.4639826,0.180744377 C39.1895494,-0.13701616 40.0446345,0.196566478 40.3618222,0.920427618 L51.6100897,26.5008101 Z" id="Fill-4" fill="#1C3C6D"></path>
                                    <path d="M52.9981823,26.9116573 L10.917952,45.3272649 C10.3985572,45.5553668 9.78797098,45.3167168 9.55933154,44.798543 C9.33201371,44.2803692 9.56990446,43.6698998 10.0892993,43.4431163 L52.1695295,25.0275088 C52.6889243,24.7994068 53.3008322,25.0380568 53.52815,25.5575492 C53.7554678,26.0744045 53.5175771,26.6848739 52.9981823,26.9116573" id="Fill-6" fill="#1C3C6D"></path>
                                    <polygon id="Fill-8" fill="#FFFFFF" points="16.8389206 33.2041071 19.7068257 31.948887 20.5394434 33.8396281 17.6702166 35.0961667"></polygon>
                                    <polygon id="Fill-10" fill="#FFFFFF" points="11.0109937 35.7548935 16.1890824 33.4883775 17.0203784 35.3804371 11.8422898 37.6469532"></polygon>
                                    <polygon id="Fill-12" fill="#FFFFFF" points="37.9511959 23.9642635 40.8191011 22.710362 41.6517187 24.6011031 38.7824919 25.8576417"></polygon>
                                    <polygon id="Fill-14" fill="#FFFFFF" points="34.4322631 25.5042814 37.3001682 24.2490614 38.1327859 26.141121 35.2635591 27.3976596"></polygon>
                                    <polygon id="Fill-16" fill="#FFFFFF" points="41.4701287 22.4255642 45.5473118 20.6403037 46.3799295 22.5323634 42.3014247 24.3176238"></polygon>
                                    <polygon id="Fill-18" fill="#FFFFFF" points="27.3950583 28.5841853 30.2629634 27.3289653 31.095581 29.2210249 28.2263543 30.4775634"></polygon>
                                    <polygon id="Fill-20" fill="#FFFFFF" points="23.8761254 30.1242032 26.7440306 28.8689831 27.5766482 30.7597243 24.7074214 32.0162628"></polygon>
                                    <polygon id="Fill-22" fill="#FFFFFF" points="20.3578534 31.6642211 23.2257586 30.409001 24.0583762 32.2997421 21.1891494 33.5562807"></polygon>
                                    <polygon id="Fill-24" fill="#FFFFFF" points="30.9139911 27.0441674 33.7818962 25.7889474 34.6145138 27.681007 31.7452871 28.9375456"></polygon>
                                    <polygon id="Fill-26" fill="#FFFFFF" points="38.3332749 20.0357676 35.4653697 21.2909877 34.6327521 19.4002465 37.5019789 18.143708"></polygon>
                                    <polygon id="Fill-28" fill="#FFFFFF" points="41.8515469 18.4957497 38.9836418 19.7509698 38.1510241 17.8602287 41.0202509 16.6036901"></polygon>
                                    <polygon id="Fill-30" fill="#FFFFFF" points="45.2704334 20.0087382 43.6118063 20.7352363 41.6703534 16.3195515 43.3289806 15.5930534"></polygon>
                                    <polygon id="Fill-32" fill="#FFFFFF" points="17.2209996 29.2756111 14.3530944 30.5308312 13.5204768 28.6400901 16.3897036 27.3835515"></polygon>
                                    <polygon id="Fill-34" fill="#FFFFFF" points="20.7398002 27.7357251 17.8705735 28.9909452 17.0392775 27.100204 19.9085042 25.8436655"></polygon>
                                    <polygon id="Fill-36" fill="#FFFFFF" points="13.7020668 30.815629 9.62488365 32.6008895 8.79226603 30.7088298 12.8707708 28.9235694"></polygon>
                                    <polygon id="Fill-38" fill="#FFFFFF" points="27.7771372 24.6556894 24.9092321 25.9109094 24.0766145 24.0201683 26.9458412 22.7636297"></polygon>
                                    <polygon id="Fill-40" fill="#FFFFFF" points="31.2960701 23.1158034 28.4268433 24.3710234 27.5955473 22.4802823 30.4634524 21.2237437"></polygon>
                                    <polygon id="Fill-42" fill="#FFFFFF" points="34.8143421 21.5757855 31.9464369 22.8310055 31.1138193 20.9402644 33.9830461 19.6837259"></polygon>
                                    <polygon id="Fill-44" fill="#FFFFFF" points="24.2582044 26.1957072 21.3902993 27.4509273 20.5576817 25.5601862 23.4269084 24.3036476"></polygon>
                                    <polygon id="Fill-46" fill="#FFFFFF" points="38.2332286 23.0886421 35.3640019 24.3438621 34.5327059 22.453121 37.4019326 21.1965824"></polygon>
                                    <polygon id="Fill-48" fill="#FFFFFF" points="44.6987027 20.2585955 42.5114294 21.2171512 41.6801334 19.3250916 43.8674067 18.3665359"></polygon>
                                    <polygon id="Fill-50" fill="#FFFFFF" points="41.7515006 21.5487561 38.8835955 22.8039761 38.0509779 20.913235 40.9202046 19.6566964"></polygon>
                                    <polygon id="Fill-52" fill="#FFFFFF" points="17.1209533 32.3286175 14.2530482 33.5838375 13.4204305 31.6917779 16.2896573 30.4352393"></polygon>
                                    <polygon id="Fill-54" fill="#FFFFFF" points="20.6392253 30.7885996 17.7713202 32.0438196 16.9387026 30.15176 19.8079293 28.8952215"></polygon>
                                    <polygon id="Fill-56" fill="#FFFFFF" points="13.6020205 33.8685035 10.7341153 35.1237235 9.90149773 33.2316639 12.7707245 31.9751253"></polygon>
                                    <polygon id="Fill-58" fill="#FFFFFF" points="27.677091 27.7086957 24.8091858 28.9639157 23.9765682 27.0731746 26.845795 25.8166361"></polygon>
                                    <polygon id="Fill-60" fill="#FFFFFF" points="31.195363 26.1686778 28.3274578 27.4238979 27.4948402 25.5331567 30.364067 24.2766182"></polygon>
                                    <polygon id="Fill-62" fill="#FFFFFF" points="34.7142958 24.6286599 31.8463907 25.88388 31.013773 23.9931389 33.8829998 22.7366003"></polygon>
                                    <polygon id="Fill-64" fill="#FFFFFF" points="24.1581581 29.2485817 21.290253 30.5038018 20.4576354 28.6117421 23.3268621 27.3565221"></polygon>
                                    <polygon id="Fill-66" fill="#FFFFFF" points="40.4518242 28.1348376 37.583919 29.3900577 36.7513014 27.4993166 39.6205282 26.242778"></polygon>
                                    <polygon id="Fill-68" fill="#FFFFFF" points="43.970757 26.5948198 41.1015302 27.8500398 40.2702342 25.9592987 43.139461 24.7027601"></polygon>
                                    <polygon id="Fill-70" fill="#FFFFFF" points="47.489029 25.0549337 44.6211239 26.3101538 43.7885062 24.4194127 46.657733 23.1628741"></polygon>
                                    <polygon id="Fill-72" fill="#FFFFFF" points="19.3395489 37.3746812 16.4716437 38.6299012 15.6390261 36.7378416 18.5082529 35.481303"></polygon>
                                    <polygon id="Fill-74" fill="#FFFFFF" points="22.8584817 35.8346633 19.9905765 37.0898833 19.1579589 35.1991422 22.0271857 33.9426037"></polygon>
                                    <polygon id="Fill-76" fill="#FFFFFF" points="15.820616 38.914699 12.9527109 40.1699191 12.1200933 38.2778594 14.98932 37.0213209"></polygon>
                                    <polygon id="Fill-78" fill="#FFFFFF" points="29.8956865 32.7547594 27.0277814 34.0099794 26.1951638 32.1192383 29.0643905 30.8626998"></polygon>
                                    <polygon id="Fill-80" fill="#FFFFFF" points="33.4146193 31.2147415 30.5453926 32.4699616 29.7140966 30.5792204 32.5833233 29.3226819"></polygon>
                                    <polygon id="Fill-82" fill="#FFFFFF" points="36.9328913 29.6748555 34.0649862 30.9300755 33.2323686 29.0393344 36.1015953 27.7827959"></polygon>
                                    <polygon id="Fill-84" fill="#FFFFFF" points="26.3767537 34.2947773 23.5088486 35.5499973 22.6762309 33.6592562 25.5454577 32.4027176"></polygon>
                                    <polygon id="Fill-86" fill="#FFFFFF" points="36.0139722 18.0425784 33.1460671 19.2977984 32.3134495 17.4070573 35.1826762 16.1505188"></polygon>
                                    <polygon id="Fill-88" fill="#FFFFFF" points="39.5329051 16.5025605 36.6649999 17.7577806 35.8323823 15.8670394 38.7016091 14.6105009"></polygon>
                                    <polygon id="Fill-90" fill="#FFFFFF" points="43.0518379 14.9626745 40.1826111 16.2178945 39.3513151 14.3271534 42.2205419 13.0706149"></polygon>
                                    <polygon id="Fill-92" fill="#FFFFFF" points="38.4235412 13.9789353 35.5556361 15.2341554 34.7230185 13.3434143 37.5922452 12.0868757"></polygon>
                                    <polygon id="Fill-94" fill="#FFFFFF" points="41.9418132 12.440236 39.0739081 13.695456 38.2412905 11.8033964 41.1105172 10.5468578"></polygon>
                                    <polygon id="Fill-96" fill="#FFFFFF" points="34.9046084 15.5188214 32.0367033 16.7740414 31.2040856 14.8833003 34.0733124 13.6267617"></polygon>
                                    <polygon id="Fill-98" fill="#FFFFFF" points="13.7923331 24.7586649 10.9244279 26.0138849 10.0918103 24.1231438 12.9610371 22.8666053"></polygon>
                                    <polygon id="Fill-100" fill="#FFFFFF" points="17.3112659 23.2187789 14.4433608 24.4739989 13.6107431 22.5832578 16.4799699 21.3267192"></polygon>
                                    <polygon id="Fill-102" fill="#FFFFFF" points="10.2740611 26.2986828 7.40615594 27.5539028 6.57353832 25.6631617 9.44276507 24.4066231"></polygon>
                                    <polygon id="Fill-104" fill="#FFFFFF" points="14.9016969 27.2824219 12.0337918 28.537642 11.2011742 26.6455823 14.0704009 25.3890438"></polygon>
                                    <polygon id="Fill-106" fill="#FFFFFF" points="18.4206298 25.742404 15.5527246 26.9976241 14.720107 25.1055645 17.5893338 23.8490259"></polygon>
                                    <polygon id="Fill-108" fill="#FFFFFF" points="11.3834249 28.8211213 8.51551979 30.0763413 7.68290217 28.1856002 10.5521289 26.9290616"></polygon>
                                    <polygon id="Fill-110" fill="#FFFFFF" points="25.4578346 22.6625001 22.5899295 23.9177202 21.7573118 22.0256606 24.6265386 20.7704405"></polygon>
                                    <polygon id="Fill-112" fill="#FFFFFF" points="28.9767674 21.1224823 26.1088623 22.3777023 25.2762447 20.4869612 28.1454714 19.2304226"></polygon>
                                    <polygon id="Fill-114" fill="#FFFFFF" points="32.4957002 19.5825963 29.6264735 20.8378163 28.7951775 18.9470752 31.6644042 17.6905366"></polygon>
                                    <polygon id="Fill-116" fill="#FFFFFF" points="21.9395626 24.202518 19.0716574 25.4577381 18.2390398 23.5656784 21.1082666 22.3091399"></polygon>
                                    <polygon id="Fill-118" fill="#FFFFFF" points="31.292766 17.1001085 17.9616328 22.9345084 17.1290152 21.0424488 30.46147 15.2080489"></polygon>
                                    <polygon id="Fill-120" fill="#87B8F5" points="28.7567185 14.5261163 18.2009773 19.1448514 15.0872517 12.0644611 25.6429929 7.44440744"></polygon>
                                    <path d="M9.48994673,44.5672766 L53.404579,25.3486974 C53.1230749,24.979515 52.6129314,24.8331606 52.1688687,25.0282999 L10.0899601,43.4425889 C9.64589734,43.6377282 9.40800659,44.1097542 9.48994673,44.5672766" id="Fill-122" fill="#87B8F5"></path>
                                </g>
                                <path d="M61.676745,84.2841535 C59.7366138,83.4152564 57.9524331,84.1140659 55.9620805,84.5834549 C53.0756728,85.2638053 50.1905867,85.9441556 47.3041789,86.6231875 C46.5178178,86.8104157 46.1794843,87.5065882 46.2191328,88.1434277 C46.187414,88.266049 46.1649465,88.3939443 46.1675898,88.5363433 C46.2098815,90.8107703 45.2543536,91.4963947 44.5155707,93.3225289 C44.2367099,94.0107904 43.9525626,94.5355567 44.1177645,95.3161137 C44.4494899,96.8864573 46.3156107,97.6775624 47.6134369,98.2933058 C51.4117592,100.098344 57.0986697,101.441904 61.2366471,100.205143 C63.6750273,99.4773264 67.2605695,96.3432318 65.1446634,93.6271044 C64.4164534,92.6936004 57.6207077,90.5338836 57.939217,89.7295934 C58.1361377,89.2298787 60.3947782,88.4572328 60.9022784,88.0194879 C61.6212371,87.4011075 61.9635355,86.8381044 62.3943821,86.0140366 C62.731394,85.3679675 62.284688,84.5557662 61.676745,84.2841535" id="Fill-124" fill="#F9BFBA"></path>
                                <g id="Group-131" transform="translate(0.000000, 0.037001)">
                                    <mask id="mask-2" fill="white">
                                        <use xlink:href="#path-1"></use>
                                    </mask>
                                    <g id="Clip-130"></g>
                                    <path d="M60.0343737,8.74065623 L7.165798,48.713877 C5.20584255,50.1958805 2.38815879,49.808239 0.90266323,47.8542095 C-0.582832334,45.8988614 -0.194277445,43.0878014 1.765678,41.6057979 L54.6342537,1.63125866 C56.5928875,0.150573665 59.4118929,0.536896642 60.8960668,2.49356318 C62.3815624,4.44759271 61.9930075,7.25865273 60.0343737,8.74065623" id="Fill-129" fill="#5BD7C5" mask="url(#mask-2)"></path>
                                </g>
                                <path d="M76.6443022,70.5363296 C76.624478,71.2720573 77.1874861,71.8337419 77.8747261,72.0064665 C78.8091081,72.2424795 79.7183794,71.6623358 80.5087053,71.2549167 C81.3109258,70.8395865 82.1118246,70.4268934 82.9140451,70.0142002 C83.360751,71.4052266 83.6171444,72.8450379 83.6475416,74.3125378 C83.6805819,75.8841999 83.4783748,77.4545434 83.7268385,79.0169759 C83.9026133,80.124523 84.3440328,81.3243657 85.3061687,81.9902125 C86.3105963,82.6850665 87.5833118,82.5162974 88.6247447,81.994168 C90.6177405,80.9934201 91.7966213,78.8455698 92.4005995,76.7886967 C93.1208798,74.3362709 93.2239658,71.7005725 93.2979763,69.1611253 C93.3865245,66.082408 93.2583278,63.0010538 92.9292456,59.9394771 C92.8948836,59.6203981 92.704571,59.4371254 92.388705,59.4002072 C89.585559,59.0784911 86.7731617,59.1285944 83.9805886,59.5175544 C83.7123007,59.2393492 83.1704384,59.2393492 83.0766038,59.7166492 C82.40258,63.1355416 79.5981124,65.5154494 77.7253835,68.2948652 C77.2958586,68.9317048 76.6654481,69.7373135 76.6443022,70.5363296" id="Fill-132" fill="#F9BFBA"></path>
                                <path d="M76.9320179,39.1471263 C77.6536198,40.8770093 78.2734574,42.6372181 78.8549681,44.3235904 C80.3523582,48.6575277 81.1836542,53.0600274 80.4157957,57.6167927 C80.1726185,59.0566039 80.3074233,60.3236905 80.7052295,61.41146 C84.660824,62.5242811 88.6521021,62.8499527 93.0662971,62.3133198 C93.6425214,62.2434388 94.2094943,62.1445507 94.7777889,62.0482996 C95.1280169,61.3587196 95.3910184,60.5768441 95.5403609,59.694762 C97.5703619,47.6422762 92.6962448,33.1571424 85.4670093,23.4990679 C81.5365255,18.2487673 75.9910278,14.2932419 69.5468317,12.8626603 C63.2625511,11.4676783 56.914833,13.3887451 51.4169135,16.3962629 C39.4153252,22.967709 28.2014196,31.1872907 18.8681726,41.210592 C14.6191795,45.7739497 9.91687235,51.1626938 8.02167605,57.2120106 C6.02207214,63.59491 7.2908228,70.1202083 10.0648933,76.0719555 C13.1667243,82.7251491 17.135535,89.487779 23.4039562,93.6252585 C29.529643,97.6704424 36.6491844,99.6508421 43.9141036,100.320644 C44.3581663,100.3602 44.7982642,100.358881 45.2343972,100.329874 C45.564801,99.6693012 45.8767022,98.9981804 46.1529198,98.3059635 C47.4533893,95.0466106 49.1939566,89.415261 48.0216838,85.7643111 C47.3886301,85.4874243 46.7119631,85.2975591 45.9969692,85.2303152 C41.7400465,84.8387182 37.4857669,84.114857 33.6676204,82.089628 C32.3275025,81.3802705 31.1658027,80.4995068 30.1349428,79.4948034 C29.7305285,77.4880335 29.5098187,75.4522565 29.4622406,73.4164794 C33.3914028,64.9503367 40.2756967,58.5990815 47.9992164,53.2103374 C53.1178323,49.6398165 58.5020929,46.3435454 63.9326101,43.2661467 C68.1155224,40.8954685 72.2310324,39.4807089 76.9320179,39.1471263" id="Fill-134" fill="#F9E3A2"></path>
                                <path d="M45.3900835,18.4719908 C36.8365895,17.1495268 26.4407638,23.2331248 23.0997203,31.0967092 C22.132298,33.3737733 21.7080595,35.8512507 21.7781051,38.3221355 C21.4054096,39.3901274 21.2468157,40.5464593 21.3380072,41.7107022 C21.8679749,48.4377324 26.4513367,54.4830936 32.8334168,56.7522467 C34.2382939,57.2532799 35.553301,57.3732641 36.7440764,57.2110876 C37.4247083,57.4194119 38.1185563,57.5842255 38.8190124,57.6910247 C42.9583114,58.3173162 47.0262432,56.885416 50.3738947,54.5239674 C57.3163397,51.3424065 61.7979371,43.7623014 61.1780995,36.1083598 C60.4961461,27.6817723 53.9250749,19.7904992 45.3900835,18.4719908" id="Fill-136" fill="#1C3C6D"></path>
                            </g>
                            <polygon id="Rectangle-10" fill="#1C3C6D" transform="translate(124.136366, 78.388673) rotate(109.000000) translate(-124.136366, -78.388673) " points="90.7634592 75.75397 157.509274 75.75397 157.509274 81.0233764 90.7634592 81.0233764"></polygon>
                            <rect id="Rectangle-2" fill="#1C3C6D" transform="translate(129.649638, 78.310980) rotate(109.000000) translate(-129.649638, -78.310980) " x="116.915239" y="75.2371597" width="25.4687976" height="6.14764079"></rect>
                            <path d="M56.8091464,131.732957 C38.0734792,135.245895 22.997122,131.001095 11.5800748,118.998558" id="Path-53" stroke="#1C3C6D" transform="translate(34.194611, 125.962294) rotate(-13.000000) translate(-34.194611, -125.962294) "></path>
                            <path d="M135.610778,83.657192 C135.610778,83.657192 141.319301,110.004224 121.559027,116.590982 C101.798753,123.17774 99.6031673,101.660997 92.5772921,102.539232" id="Path-54" stroke="#1C3C6D" transform="translate(114.476792, 100.751864) rotate(-19.000000) translate(-114.476792, -100.751864) "></path>
                        </g>
                    </g>
                </g>
            </g>
        </g>
    </g>
</svg>