<svg xmlns="http://www.w3.org/2000/svg" xmlns:xlink="http://www.w3.org/1999/xlink" width="94px" height="83px" viewBox="0 0 94 83" version="1.1">
    <defs>
        <polygon id="path-1" points="0 0.455471459 55.3439471 0.455471459 55.3439471 90.7731683 0 90.7731683"></polygon>
    </defs>
    <g id="Career" stroke="none" stroke-width="1" fill="none" fill-rule="evenodd">
        <g id="Department" transform="translate(-1617.000000, -76.000000)">
            <g id="TOP" transform="translate(-7.000000, -108.000000)">
                <g id="ilu" transform="translate(288.000000, 0.000000)">
                    <g id="typ" transform="translate(1385.419980, 232.403999) rotate(125.000000) translate(-1385.419980, -232.403999) translate(1346.419980, 186.403999)">
                        <path d="M66.3103532,72.5042319 C64.7163858,72.2337096 63.1253244,72.2264375 61.5676825,72.4853244 C60.3616725,72.6860345 58.3259858,73.0380043 57.6692189,74.1375465 C57.3800671,74.6218686 57.3975034,75.2094547 57.5297286,75.8072216 C57.5210104,75.8246747 57.5122923,75.8421277 57.5064802,75.8610352 C57.1592074,76.9460331 57.1708316,77.7939605 58.1559819,78.5953464 C58.3521402,78.7553327 58.5642817,78.8091462 58.761893,78.7916932 C60.5418475,80.5617234 63.2575496,82.3724773 65.4312736,81.037319 C67.0906271,80.01777 68.4593758,78.2942813 69.6290603,76.8064087 C70.2349713,76.0341113 71.240464,75.1600043 70.4471128,74.1579084 C69.61453,73.1049077 67.5163632,72.7093052 66.3103532,72.5042319" id="Fill-1" fill="#F9BFBA"></path>
                        <path d="M51.2756222,72.7052328 L53.972435,64.2783185 C54.2877412,63.2980388 55.3455427,62.752631 56.326334,63.0667859 L75.9160049,69.349884 C76.8967962,69.6654933 77.4416802,70.7243117 77.127827,71.7060457 L74.4310143,80.1315057 C74.1157081,81.1132397 73.0579065,81.6586476 72.0771153,81.3444927 L52.4859913,75.0599402 C51.5066531,74.7457853 50.961769,73.6869669 51.2756222,72.7052328" id="Fill-3" fill="#00BFA5"></path>
                        <polygon id="Fill-5" fill="#FFFFFF" points="57.135959 63.6654255 53.5818621 75.2353433 71.1024267 80.6341535 74.8105442 69.3740273"></polygon>
                        <g id="GitHub-Filled" transform="translate(65.610169, 73.084746) rotate(106.000000) translate(-65.610169, -73.084746) translate(61.457627, 68.932203)" fill="#333333" fill-rule="nonzero">
                            <path d="M4.15254237,0 C1.86864407,0 0,1.92892291 0,4.28649535 C0,6.10825588 1.10734463,7.66211044 2.64724576,8.28722435 C2.8029661,8.25150355 2.94138418,8.10862038 2.94138418,7.9300164 L2.94138418,7.14415892 L2.49152542,7.14415892 C2.16278249,7.14415892 1.88594633,6.98341535 1.74752825,6.73336978 C1.71292373,6.66192819 1.67831921,6.57262621 1.64371469,6.48332422 C1.57450565,6.28685985 1.48799435,6.07253508 1.31497175,5.9475123 C1.24576271,5.89393111 1.21115819,5.78676873 1.22846045,5.69746674 C1.26306497,5.60816475 1.34957627,5.53672316 1.50529661,5.55458356 C1.67831921,5.57244396 1.93785311,5.76890833 2.09357345,5.9832331 C2.23199153,6.16183707 2.33580508,6.26899945 2.5434322,6.26899945 L2.59533898,6.26899945 C2.75105932,6.26899945 3.13170904,6.26899945 3.20091808,6.19755786 C3.25282486,6.12611627 3.28742938,6.07253508 3.33933616,6.01895389 C2.30120056,5.80462912 1.71292373,5.17951522 1.71292373,4.23291416 C1.71292373,3.91142701 1.79943503,3.58993986 1.98975989,3.3041735 C1.92055085,3.03626754 1.76483051,2.33971205 2.09357345,2.03608529 L2.14548023,1.9825041 L2.21468927,1.9825041 C2.66454802,1.9825041 2.99329096,2.17896847 3.20091808,2.33971205 C3.80649718,2.10752688 4.49858757,2.10752688 5.10416667,2.33971205 C5.29449153,2.17896847 5.62323446,1.9825041 6.09039548,1.9825041 L6.15960452,1.9825041 L6.2115113,2.03608529 C6.54025424,2.35757244 6.3845339,3.03626754 6.31532486,3.3041735 C6.48834746,3.58993986 6.59216102,3.91142701 6.59216102,4.23291416 C6.59216102,5.17951522 6.00388418,5.80462912 4.98305085,6.01895389 C5.24258475,6.30472025 5.38100282,6.73336978 5.38100282,7.07271733 L5.38100282,7.9478768 C5.38100282,8.12648077 5.50211864,8.26936395 5.67514124,8.30508475 C7.19774011,7.66211044 8.30508475,6.10825588 8.30508475,4.28649535 C8.30508475,1.92892291 6.43644068,0 4.15254237,0 Z" id="Shape"></path>
                        </g>
                        <path d="M57.4708811,67.8995355 C55.6691312,70.3778686 53.7976362,72.7951161 51.8433187,75.1527322 C51.7299829,75.1861839 51.619553,75.2559961 51.5207474,75.3781675 C50.7317553,76.3700825 49.8381455,77.114746 48.7105988,77.702332 C48.4752089,77.8259578 48.3676851,78.0862991 48.3575139,78.3379139 C48.2935809,79.9057796 47.6658744,83.3280318 49.3223219,84.2748598 C50.5225198,84.959892 52.0467421,85.1198783 53.5244676,85.1271504 C53.9153311,85.2042347 54.3120067,85.263866 54.7188534,85.2929544 C54.8888573,85.3118618 55.0617671,85.3220428 55.2448482,85.3176795 C55.2593784,85.3176795 55.2739086,85.3162251 55.2884389,85.3162251 C55.3218584,85.3162251 55.3523719,85.3191339 55.3857915,85.3191339 C55.4395534,85.3191339 55.4904092,85.3118618 55.538359,85.3016809 C58.673985,85.1358769 63.4384511,83.6392779 65.6325175,80.9602347 C64.6517262,80.4802758 63.5459749,80.2621127 62.5564654,79.7952436 C62.1525247,79.60326 61.7645673,79.3850969 61.383875,79.153844 C60.1560696,78.7975109 59.0561304,78.1982895 58.2860276,76.994029 C58.252608,76.9416699 58.2264536,76.8893107 58.2046583,76.8354972 C58.187222,76.8224074 58.1683327,76.810772 58.1508964,76.7991366 C58.0869633,76.6129708 58.0506377,76.4035342 58.0462786,76.167918 C58.0361075,75.5774231 58.4211588,74.9025719 58.6449246,74.3804348 C59.2711779,72.9172874 60.0151263,71.5021359 60.6544569,70.0448062 C61.1819046,68.8420002 62.3632132,66.971615 60.8912998,66.0189693 C59.3772487,65.0357808 58.2264536,66.861079 57.4708811,67.8995355" id="Fill-13" fill="#F9BFBA"></path>
                        <path d="M49.5552417,17.1815536 C49.5552417,17.1815536 52.0341008,19.5042637 53.0308753,19.4824473 C54.0291029,19.460631 55.9543598,19.0679374 55.9543598,19.0679374 C55.9543598,19.0679374 55.7407653,18.0163911 55.845383,17.8593137 C55.9485477,17.7007818 57.2446452,17.3444487 57.7851702,16.8703075 C58.3256952,16.3932575 58.4419371,14.7279456 58.3518496,14.0618209 C58.2617621,13.3971505 53.2430169,10.6817468 53.2430169,10.6817468 L49.5552417,17.1815536 Z" id="Fill-15" fill="#F9BFBA"></path>
                        <path d="M55.474426,31.2222415 C54.6839809,30.9909886 54.2248252,31.9872669 54.6738097,32.4643169 L53.3137791,37.2464527 C52.9359929,38.5728845 52.2487125,40.1174794 52.2036687,41.5064513 C52.1964036,41.750794 52.3082864,42.0634945 52.5422233,42.1813026 C53.4474573,42.6365363 54.1957648,42.4169188 55.1939923,42.4140099 C56.5133382,42.4111011 57.7425966,42.9259661 59.0735667,42.8663348 C61.1630153,42.7717974 63.2713533,41.622805 64.1547919,39.6695178 C64.879851,38.0623827 64.7447197,36.0101949 63.6622168,34.5848625 C61.9418362,32.3188748 58.0143121,31.966905 55.474426,31.2222415" id="Fill-17" fill="#012C6D"></path>
                        <path d="M50.7875514,49.9252209 C50.1758283,49.6299735 49.7675285,50.2481024 49.8735993,50.7906013 C49.8343676,50.879321 49.8125723,50.9854937 49.8154783,51.1062107 C49.8765053,54.2535774 47.6969692,56.612648 46.3122372,59.2553306 C46.0637701,59.7294718 46.2323209,60.1716158 46.7089128,60.3941422 C50.2702748,62.0536363 56.9803401,64.3079887 59.023292,59.4429509 C59.7774115,57.6467412 59.8151902,55.334212 58.3534479,53.8885177 C56.4732347,52.0297679 53.1167491,51.0523971 50.7875514,49.9252209" id="Fill-19" fill="#012C6D"></path>
                        <path d="M44.5301031,21.4991473 C43.9459874,21.0613666 43.3299052,20.6599465 42.7210881,20.2468909 C42.6426248,20.3167031 42.5772387,20.4054228 42.5278359,20.5203221 C39.1873335,28.4076463 35.7073408,36.2527923 32.5746208,44.2273818 C29.874902,51.0966115 28.0586219,57.8800303 28.6194892,65.2088569 C32.2026467,65.3804786 35.6041761,66.0509666 39.2628908,65.3121208 C41.8231192,64.794347 44.3077904,64.0104142 46.7619482,63.1304895 C47.0307576,62.5996259 47.2719596,62.0585814 47.5160677,61.5524429 C48.4721575,59.5744306 49.345425,57.5556944 50.1169808,55.497689 C50.7868249,53.7102057 51.8649688,51.5707527 51.997194,49.6698246 C52.177369,47.0969542 48.4067714,46.363926 46.4103163,44.8062413 C48.7351549,44.8411474 51.6920589,44.8280576 53.084056,43.4259959 C55.010766,41.4828897 55.5629151,37.1545333 55.9552316,34.5642097 C56.1223294,33.4588499 56.4100282,32.1178739 56.3344709,30.9325209 C54.6053723,29.2323029 52.8050754,27.6120781 50.8463989,26.1722015 C48.7351549,24.6217888 46.6282699,23.0684674 44.5301031,21.4991473 Z" id="Fill-21" fill="#5BD7C5"></path>
                        <g id="Group-25" transform="translate(0.000000, 0.057493)">
                            <mask id="mask-2" fill="white">
                                <use xlink:href="#path-1"></use>
                            </mask>
                            <g id="Clip-24"></g>
                            <path d="M33.9443866,0.479813437 C31.4974941,0.375095136 29.1799206,0.612165733 26.97423,1.11539535 C25.2640207,1.98513901 23.6438988,3.00177918 22.1109584,4.15222607 C20.4821183,6.14914589 18.8489193,8.14170245 17.0965722,10.0353584 C17.022468,10.1153515 16.9469107,10.1880726 16.8713534,10.2564304 C11.4094359,18.6891624 7.38455909,28.0658136 4.56133326,37.6911707 C1.71921812,47.3805224 -0.362965421,57.577467 0.0525994725,67.7205979 C0.0860190268,68.5132573 0.132515798,69.3059166 0.189183738,70.0971216 C0.670134716,72.0751339 1.27604577,74.0124225 2.13042394,75.8566281 C4.69210543,81.3776097 9.81401539,85.0354781 15.3543963,87.2360168 C21.1766639,89.5470915 27.4653522,90.4677399 33.6973725,90.7164459 C34.631667,90.7528064 35.5703206,90.7731683 36.5104272,90.7731683 C38.2220896,90.6466337 39.935205,90.4691944 41.6439614,90.2539401 C43.6869132,89.3187475 45.664479,88.1915713 47.5505043,86.8665939 C47.7611928,86.7866008 47.9747874,86.6978811 48.1854759,86.6004349 C48.1883819,86.5989805 48.191288,86.5975261 48.195647,86.5960716 C48.8277125,86.2993698 49.4103752,85.9154027 49.6559363,85.3612683 C50.0090211,84.5642457 49.6849967,83.5272437 49.5716609,82.7040415 C49.3013984,80.7391189 48.9090819,78.8003759 48.4397551,76.8747227 C48.4194127,76.7918207 48.3859932,76.7190997 48.3453085,76.6551052 C46.9692947,76.6754671 45.5845627,76.5591134 44.2100019,76.3162251 C43.2684423,76.208598 42.3326948,76.0195233 41.3867761,75.7417289 C41.3301082,75.7242758 41.2748932,75.7155493 41.2211313,75.7126405 C40.9624931,75.6297385 40.7038548,75.5410188 40.4466695,75.4421182 C39.8465705,75.2108653 39.2610018,74.9505239 38.6899634,74.6669119 C36.375296,73.6880866 34.2015719,72.3980154 32.3039224,70.8825088 C32.1092172,70.7268858 32.0728916,70.5072683 32.1295595,70.3167391 C32.1019521,70.1203923 32.1295595,69.9095013 32.2501605,69.6957014 C33.3660831,67.7365966 33.8862657,65.5695095 34.5619219,63.4373285 C35.1474906,61.5873052 35.9175934,59.8085485 36.5511119,57.9745238 C37.9954178,53.800336 38.9151821,49.4792517 40.2708536,45.2803387 C41.7064414,40.8312653 42.6363768,36.4665484 43.3934024,31.8502166 C44.09376,27.580037 44.2041898,23.2982221 44.7316376,19.0134983 C44.8101009,18.3866429 45.3695152,17.9604976 45.9972216,18.1466634 C46.9111737,18.4171857 47.8527333,18.6382577 48.8044641,18.7473392 C48.9672028,18.5989883 49.1895155,18.504451 49.4743082,18.5160863 C49.7343996,18.5262673 49.9814137,18.549538 50.2269747,18.5800808 C52.0025702,17.5459876 53.6357693,16.2660973 54.7487857,14.7302289 C56.2352294,12.6794955 54.6296378,10.3946003 53.2884965,8.6202069 C51.0653696,6.85454 48.8785684,5.04087721 46.5944145,3.36538439 C42.585521,1.6840739 38.3034589,0.665979305 33.9443866,0.479813437" id="Fill-23" fill="#F9E3A2" mask="url(#mask-2)"></path>
                        </g>
                        <path d="M41.367015,40.9905682 C41.2042763,40.8916676 41.0429906,40.8683969 40.8947821,40.8945765 C40.5562275,40.7680418 40.1450217,40.865488 40.0229677,41.3149041 C39.6422754,42.7024216 39.1482472,44.044852 38.5394301,45.3480131 C38.3272885,45.8032468 38.777726,46.1930316 39.1642304,46.2628438 C40.7015299,46.5406382 42.9595294,46.2613894 43.9853644,44.9233222 C45.3366768,43.1576553 42.5657598,41.7250508 41.367015,40.9905682" id="Fill-26" fill="#F9BFBA"></path>
                        <path d="M17.6057118,52.9725235 C22.3396644,50.9523329 26.8091665,48.056581 29.2429819,43.3398942 C31.4036287,39.154071 31.5838037,33.6781766 28.8346821,29.7076076 C27.5356785,27.8343136 25.6845258,26.4133444 25.4825555,23.985916 C25.4418708,23.4754143 25.4883676,22.9794568 25.6046095,22.50677 C20.2167961,20.5723903 14.3451257,20.6320216 9.50219641,23.8477461 C3.07256477,28.1193801 1.37543261,37.6734706 4.18703425,45.1390128 C5.920492,49.7437092 9.52399178,53.7186414 13.9629804,56.0078998 C14.5311128,54.3629498 16.0596942,53.6328305 17.6057118,52.9725235" id="Fill-28" fill="#012C6D"></path>
                        <path d="M23.0368253,57.9386435 C30.4995571,57.6564858 36.7315775,53.5288395 39.8802807,47.6369806 C40.5849974,46.1680156 41.224328,44.6830519 41.6892957,43.1239127 C42.2777705,34.2432191 34.6857195,25.5777797 25.7699637,22.3765994 C25.6537217,22.8478317 25.607225,23.3452437 25.6479096,23.854291 C25.84988,26.2817194 27.7010327,27.7026885 29.0000362,29.577437 C31.7491578,33.5465515 31.5689828,39.0224459 29.408336,43.2097236 C26.9745206,47.9249559 22.5050185,50.8207078 17.771066,52.8408984 C16.2250483,53.5012055 14.696467,54.2313247 14.1283345,55.8762747 C16.8614729,57.2856085 19.9099174,58.0564515 23.0368253,57.9386435" id="Fill-30" fill="#F9BFBA"></path>
                    </g>
                </g>
            </g>
        </g>
    </g>
</svg>