<svg width="84px" height="84px" viewBox="0 0 84 84" version="1.1" xmlns="http://www.w3.org/2000/svg" xmlns:xlink="http://www.w3.org/1999/xlink">
    <defs></defs>
    <g id="Career" stroke="none" stroke-width="1" fill="none" fill-rule="evenodd">
        <g id="Department" transform="translate(-299.000000, -384.000000)">
            <g id="TOP" transform="translate(-7.000000, -108.000000)">
                <g id="ilu" transform="translate(288.000000, 0.000000)">
                    <g id="typ" transform="translate(63.046388, 527.454305) rotate(148.000000) translate(-63.046388, -527.454305) translate(19.106217, 478.954305)">
                        <path d="M58.8408876,18.4884054 C59.7581267,19.909727 62.0461846,21.1948439 63.3892847,22.1810671 C64.8369601,23.2442207 67.0191828,25.0880292 68.8864195,25.3011644 C70.5369459,25.4890765 74.1605443,22.8293007 73.3705595,21.0321549 C73.4448962,20.7912743 73.4146575,20.5138202 73.2181063,20.2250157 C71.0925811,17.0885234 67.5055211,13.1877711 63.5959155,12.3781097 C61.319197,11.9076989 57.4499096,16.3343527 58.8408876,18.4884054" id="Fill-1" fill="#F9BFBA"></path>
                        <path d="M25.7557712,45.0145296 C27.0560332,46.7133053 29.5708811,47.6175534 31.5086746,48.3982083 C33.9529656,49.3819091 36.5144314,50.0490601 39.1174753,50.4374958 C40.626888,50.6632426 46.948026,51.6255038 48.9853551,50.0175312 C49.4313753,50.0339263 49.8723556,49.8132241 50.042448,49.2545325 C51.611078,44.1027145 52.4615401,38.7541564 52.4237418,33.3639802 C52.4086225,31.2994695 52.621553,28.6850953 50.8425123,27.2461176 C49.1705669,25.8928983 46.5990216,25.5334691 44.527674,25.2951109 C42.218197,25.0290072 39.752487,24.9634271 37.4329304,25.1589061 C34.9898994,25.3657355 33.4212693,26.7921018 32.1008482,28.7645481 C29.1299007,33.2012912 27.0648528,38.3001406 25.7444317,43.4570032 C25.7293124,43.5150163 25.7255326,43.569246 25.7179729,43.6247368 C25.4596844,44.0156949 25.3954273,44.5453799 25.7557712,45.0145296" id="Fill-3" fill="#F9E3A2"></path>
                        <path d="M27.3417885,25.0122338 C28.9545166,25.4359819 30.5697645,24.3766117 31.9090848,23.630008 C33.8922363,22.5227139 36.0605996,21.3536233 37.8094016,19.8869001 C39.3855913,18.5626874 39.1361224,16.0492056 39.2003796,14.1663013 C39.2306182,13.2734036 38.3360581,12.7222789 37.5410336,13.0791857 C33.1261905,15.0667659 29.1787866,17.7921217 25.7542593,21.2186797 C25.357377,21.6159435 25.3397378,22.107794 25.5236896,22.5088412 C25.4858913,23.6691038 26.142322,24.6956839 27.3417885,25.0122338" id="Fill-5" fill="#F9BFBA"></path>
                        <path d="M56.9676031,36.3342523 L35.0471008,33.4172009 C34.3301928,33.3226143 33.8199156,32.6567245 33.9156713,31.9391273 L38.0054489,1.14424588 C38.0999447,0.425387563 38.765195,-0.0841190348 39.483363,0.011728741 L61.4038653,2.92751897 C62.1207733,3.02336675 62.6297906,3.68799541 62.5340348,4.40685372 L58.4455172,35.2029963 C58.3497615,35.9205935 57.6845111,36.4288389 56.9676031,36.3342523" id="Fill-7" fill="#FFFFFF"></path>
                        <polygon id="Fill-9" fill="#00A79E" points="58.0036549 32.0137877 34.9177046 28.9416143 38.4468072 2.36151263 61.5327575 5.43242493"></polygon>
                        <polygon id="Fill-11" fill="#29B0B5" points="51.6719333 2.96787593 48.8647785 2.59457407 48.9050967 2.29568035 51.7122515 2.66898221"></polygon>
                        <path d="M47.5728321,32.76758 C47.4795963,33.4662599 46.8395449,33.9568491 46.141536,33.8635237 C45.4447871,33.7714594 44.953409,33.1295315 45.0466448,32.4308516 C45.1386207,31.733433 45.7799321,31.2415825 46.477941,31.334908 C47.1759498,31.4282335 47.666068,32.0689002 47.5728321,32.76758" id="Fill-13" fill="#29B0B5"></path>
                        <polygon id="Fill-15" fill-opacity="0.5" fill="#FFFFFF" points="58.1340591 32.0137877 41.4536631 29.794155 58.8597867 5.06038422 61.6631617 5.43242493"></polygon>
                        <path d="M58.8495812,22.5230923 C61.3833282,24.3782512 64.6491025,24.6014756 67.3176635,26.1779193 C68.1895446,26.6937317 69.0513462,25.9420833 69.0866246,25.1778234 C69.1924599,25.2030465 69.2982951,25.2307919 69.4053904,25.2547539 C70.5204406,25.5019403 71.3444439,24.327805 70.6048569,23.3958115 C68.8245563,21.153478 66.7620283,20.844495 64.0947272,20.5090278 C62.4731796,20.3047207 61.3165511,19.3273256 59.9217934,18.5882889 C59.1393683,18.17463 58.2246491,17.7861943 57.3893063,18.2856117 C55.4137144,19.4622692 57.8252469,21.7714439 58.8495812,22.5230923" id="Fill-17" fill="#F9BFBA"></path>
                        <path d="M27.4124713,26.6096126 C27.3734131,27.4369303 28.4758639,28.2579422 29.3590845,27.5718739 C30.940314,26.3447701 32.6513177,25.4871847 34.571472,24.9347989 C35.6436842,24.6270771 36.6717984,24.439165 37.6306156,23.8350718 C38.9308776,23.0165822 41.0942011,20.9520716 40.6973188,19.2205058 C40.5738443,18.6782092 40.1618427,18.3931882 39.6440058,18.3061685 C37.4693428,17.9379112 35.4546926,20.4879665 33.607615,21.281233 C31.2124619,22.3090743 28.7832902,22.8059693 26.8467566,24.6699563 C26.0996099,25.3888147 26.5960278,26.4355733 27.4124713,26.6096126" id="Fill-19" fill="#F9BFBA"></path>
                        <path d="M56.2035732,96.5802546 C62.3558788,97.1616471 65.580075,91.7248081 67.821515,86.8290046 C68.9101065,84.4517275 69.8966425,81.794474 69.5589775,79.1309148 C69.3523467,77.5002415 68.629139,75.2881757 66.5842502,75.8872243 C65.4918789,76.2075576 64.4914835,77.20387 63.5906237,77.8659764 C62.2273645,78.8711169 60.893084,79.9153532 59.5474641,80.9444556 C56.4921003,83.2775923 53.3938985,85.5047919 49.9340928,87.2048288 C49.1378083,87.5970479 49.2008055,88.492468 49.6644649,89.0007134 C48.3075054,92.936778 52.3166466,96.2132585 56.2035732,96.5802546" id="Fill-21" fill="#1C3C6D"></path>
                        <path d="M50.8223532,92.0591403 C53.4442963,92.5219841 56.1481357,92.0074329 58.7335404,91.0691336 C60.1900354,90.298568 61.632671,88.785182 62.7023633,87.7308565 C62.9430126,87.4950205 63.1685425,87.246573 63.3902927,86.9905585 C63.8350528,86.0472146 64.2760331,85.1013484 64.7094538,84.1504376 C66.3297415,80.6116368 67.8681329,77.0173452 69.3384874,73.3789132 C69.50228,72.9728213 69.4115641,72.5541179 69.2036734,72.221173 C69.0978381,71.6309525 68.650558,71.0823501 68.0130265,71.2336887 C61.7259069,72.7281573 54.9549689,70.7367936 48.5330353,71.4379958 C45.2584414,71.7974249 45.5948464,74.3638752 45.4663321,77.5823426 C45.3138789,81.402381 45.1715053,85.3472736 45.424754,89.2442424 C46.9946439,90.6365575 48.8001434,91.7022334 50.8223532,92.0591403" id="Fill-23" fill="#F9E3A2"></path>
                        <path d="M0.00012599438,50.8770083 C0.239515317,53.8760348 0.966502892,56.8246151 1.95555878,59.6987872 C2.0941526,59.9535405 2.2352663,60.2082938 2.38141978,60.4617859 C3.53930814,62.4682834 4.93154604,64.3032639 6.44725844,66.0360908 C8.67483908,68.1485253 11.2463844,69.953238 14.169454,71.5031975 C20.5422498,74.8843539 27.7327491,77.0964196 34.8476517,78.2100195 C42.1906042,79.3589316 49.660811,79.4194671 57.0491215,78.710698 C62.5550759,78.1835352 68.1051284,77.5491743 73.44981,76.139203 C75.3195666,75.3812489 77.0708885,74.4719562 78.6974759,73.3911464 C80.5924314,71.7756069 82.3928911,70.0490858 83.9489217,68.1144741 C84.8762403,66.9617785 85.691424,65.7485474 86.4272312,64.4936983 C87.8219889,59.6521244 87.6468568,54.2720374 87.1844574,49.1555318 C86.2042211,38.2957266 82.8225319,27.1534227 74.2372749,19.8866479 C73.6148626,19.3582239 72.9773311,19.317867 72.2994813,19.7958447 C70.287351,21.2159052 68.4818516,22.8238777 66.836365,24.657597 C66.3928647,25.1532309 66.2958491,25.6791325 66.5377583,26.2945761 C67.6981665,29.2355895 68.3319182,32.3695595 68.3293984,35.5375807 C68.3281384,38.1368211 68.1378869,41.4095182 66.9560596,43.7729225 C66.4609017,44.7654515 66.5150793,44.6015013 65.4995646,44.6632979 C64.6969804,44.712483 63.8049402,44.598979 63.002356,44.5674501 C61.3354503,44.5018701 59.6698046,44.4337677 58.0041589,44.3568373 C54.8114613,44.2105433 51.6212836,44.0339816 48.4336258,43.7956233 C41.9197163,43.3088175 35.4083267,42.5735642 29.0040324,41.2657465 C27.5790359,40.9731586 26.0872625,40.7348003 24.7025842,40.2820456 C22.0516624,39.4131099 23.9919759,37.0572724 24.9079551,35.6056831 C26.7121946,32.7428614 28.7848021,30.0805633 31.0829396,27.5998715 C31.5428191,27.1042376 31.7683491,26.1823334 31.1736556,25.6602152 C29.2875197,24.0068411 27.329567,22.4644486 25.2657791,21.0393435 C24.8852761,20.7770233 24.3069619,20.7404498 23.9025199,20.96998 C19.0907945,23.7079474 14.3093078,26.6817507 10.3493044,30.5925922 C6.49009653,34.4038024 3.89461229,38.9641387 2.15714979,44.0793832 C1.43520199,46.2119962 0.598599301,48.5211709 0.00012599438,50.8770083" id="Fill-25" fill="#5BD7C5"></path>
                        <path d="M30.4381004,75.9166092 C30.603153,76.1209163 30.7908847,76.2482929 30.9836561,76.3214399 C31.6602459,77.461524 32.4489707,78.5297222 33.3561302,79.4945058 C36.9608295,83.3183276 41.6919184,84.2679772 46.6913755,83.0055611 C56.6071332,80.5034297 65.2264088,71.471038 63.3730314,60.6642013 C62.8803934,57.7875069 61.5511527,55.118903 60.0165411,52.6672178 C58.5877649,50.3870496 57.0191348,47.7373631 54.6705996,46.3021688 C52.5816127,45.0233577 50.1209425,45.0700204 47.7610678,45.2137921 C44.5633304,45.4092711 41.3038558,45.7623945 38.1917946,46.5405271 C32.0420089,48.0778749 28.8518311,52.6382112 27.7040223,58.6829269 C26.6078712,64.4514496 26.5927519,71.1380931 30.4381004,75.9166092" id="Fill-27" fill="#1C3C6D"></path>
                        <path d="M49.4098302,21.1942133 C49.7827736,20.5560689 50.6962328,19.7174009 51.5592943,19.3403155 L52.9011345,22.5007698 L50.9154631,23.5513119 L49.4098302,21.1942133 Z" id="Fill-29" fill="#FFFFFF"></path>
                        <path d="M46.5164953,22.9209867 L44.2674956,20.9725023 C46.6424896,17.7325952 50.5016975,15.7349258 54.6847109,15.8572578 L55.0727736,18.0819351 C51.5827293,18.2673249 48.4316098,20.1060888 46.5164953,22.9209867" id="Fill-31" fill="#FFFFFF"></path>
                        <path d="M48.0852513,15.7776789 L48.9294136,12.0976288 L51.1544744,12.4154399 L50.9566632,15.8243417 C49.617343,16.0803561 48.8172786,16.323759 47.8811404,16.7298509 C47.1919511,17.0287446 46.5493798,17.4020465 45.9584662,17.8522788 L43.5897718,16.4271737 L44.5788277,14.4042812 L48.0852513,15.7776789 Z" id="Fill-33" fill="#FFFFFF"></path>
                    </g>
                </g>
            </g>
        </g>
    </g>
</svg>