<svg xmlns="http://www.w3.org/2000/svg" viewBox="0 0 37 32" enable-background="new 0 0 37 32"><path fill="#B9EDE6" d="M32.3 2.7l-6.5 3.7 2.7 2.7z"></path><path fill="#00C3A5" d="M34.5 0l-.3.1-8.4 5.6c-.4-.3-.8-.7-1-.8l1-3.5c.1-.2 0-.5-.1-.7-.1-.2-.4-.3-.6-.3 0 0-3.7 0-5.4 2.9l-.1.2c-3.2.2-6.4-1.3-6.4-1.3-.1-.1-.3-.1-.4-.1-.4.1-.7.4-.6.8 0 0 0 .9.5 1.8 0 .3.2.5.3.7-.5 0-1.3 0-1.7.1-.9.1-1.5.1-2.6-.2-.3-.1-.6 0-.7.2-.1.2-.2.5-.1.7.3.7.8 1.3 1.4 1.8-.4.1-1.1.1-1.3.1-.8.3-1.2.4-2 .4-.3 0-.5.1-.7.4-.1.2-.1.5 0 .8.3.5.7.9 1.2 1.2l-.9.4c-.4.2-.6.3-.7.4-.1 0-.2.1-.4 0-.3-.1-.6 0-.8.2-.2.2-.2.6-.1.8.3.5.7.8 1.1 1.1l-.7.3c-.7.3-1.1.5-1.2.6-.3 0-.5.2-.7.5-.1.3-.1.6.1.8.5 0 .8.3 1.1.4-.2.1-.3.2-.4.2-.7.3-1.2.4-1.2.4-.3 0-.5.3-.6.5-.1.3 0 .6.2.8.2.2.5.2.8.1 0 0 .6-.2 1.3-.4.7-.3 1.5-.6 2.2-1.1.2-.2.3-.5.3-.8-.1-.2-.3-.4-.4-.5-.1-.1-.3-.1-.4-.1-.2 0-.3-.1-.4-.1.1 0 .1 0 .2-.1.6-.3 1.4-.6 2.8-.8.4 0 .7-.3.7-.7s-.4-.8-.8-.8c0 0-.6-.1-1.2-.3-.1 0-.2-.1-.3-.2.1-.1.2-.1.3-.1.6-.4 1.5-.8 3.3-1 .4 0 .8-.3.8-.7 0-.4-.3-.8-.7-.8-.8-.1-1.5 0-2.2-.2.2-.1.5-.1.7-.1.7-.2 1.7-.4 3.7-.4.4 0 .7-.3.7-.7s-.3-.7-.7-.7c-.6 0-1.2-.2-1.7-.6l-.1-.1h1.2c1-.1 2-.3 3.9-.2.4 0 .7-.3.8-.7 0-.4-.3-.7-.7-.8-.9 0-1.3-.5-1.5-1.1 1.5.6 4.2 1.5 7.5.7.4-.2.6-.5.6-.8 0-.3-.2-.6-.5-.7.8-.7 1.7-1 2.5-1.2l-.8 2.8c-.1.3 0 .6.2.8 0 0 .9.7 1.8 1.5s2 1.7 2.2 1.9c0 0 .3.6.4 1.1l.1.9v.2s1.2 3.1 5.2 7l.1.1c.8.5 1 1 1 1.5.1.5 0 .8 0 .8 0 .1-.1.2 0 .3 0 .1 0 .2-.1.4-.1.3-.1.7-.2 1.1-.1.6-.2.9-.2 1.1-.3.2-1.6.7-3.1.2-2.1-.7-2.7-2.5-2.7-2.5-.1-.4-.5-.6-.9-.5 0 0-1.3.3-2.7.1s-3.1-.9-4-3.1c-.1-.2-.3-.4-.5-.4-.2-.1-.5 0-.6.1-1.7 1.4-2.6 2.6-3 3.9-.4 1.3-.3 2.4 0 3.5.2 1 .5 2 .6 2.9 0 .9-.1 1.7-.9 2.8-.2.3-.2.8.2 1 .3.2.8.2 1-.2.9-1.3 1.2-2.6 1.1-3.7s-.4-2.2-.6-3.1-.3-1.8 0-2.7c.2-.8.9-1.6 1.9-2.6 1.2 2 3.1 2.8 4.7 3.1 1.3.2 2.2 0 2.7-.1.3.7 1.1 2.1 3.3 2.8 2.4.8 4.5-.5 4.5-.5.2-.1.3-.3.3-.5 0 0 .2-.8.3-1.5.1-.4.2-.8.2-1.1 0-.2.1-.3.1-.4 0-.1.1-.1 0-.4.1-.2.2-.5.1-1.1-.1-.8-.6-1.7-1.6-2.4-3.8-3.7-4.8-6.3-4.9-6.4 0-.1 0-.4-.1-1l-.1-.6 6-8.2c.2-.2.2-.5.1-.8 0-.2-.3-.4-.6-.4zm-3.1 3.8l-3.1 4.2c-.3-.3-.8-.7-1.4-1.2l4.5-3zm-5.5 8.3c-.6 0-1.1.5-1.1 1.1 0 .6.5 1.1 1.1 1.1s1.1-.5 1.1-1.1c0-.6-.4-1.1-1.1-1.1z"></path></svg>