<svg xmlns="http://www.w3.org/2000/svg" viewBox="0 0 37 32" enable-background="new 0 0 37 32"><path fill="#00C3A5" d="M20.2 27l-.9 1.1.6-1.5c-.3-.5-.6-1.1-.8-1.7l-1.1 2.8-6.5-17h12.9l-1.8 4.8c.6-.3 1.1-.6 1.8-.8l1.5-4h6.9l-3.3 4.2 1.3.6 4.3-5.5-5.5-10h-23.2l-5.6 10 17.2 22 3.1-4-.9-1zm13.3-17.1zm-.3-.6h-6.7l2.7-7.2 4 7.2zm-5.2-7.9l-2.8 7.3-6.1-7.3h8.9zm-4 7.9h-12l6-7.2 6 7.2zm-7.1-7.9l-6.1 7.3-2.8-7.3h8.9zm-14.4 8.5zm4.3-7.7l2.7 7.2h-6.7l4-7.2zm-3.7 8.5h6.9l6.6 17.4-13.5-17.4z"></path><circle fill="#B9EDE6" cx="26.7" cy="22.4" r="6.1"></circle><path fill="#00C3A5" d="M26.7 15.5c-3.8 0-6.9 3.1-6.9 6.9s3.1 6.9 6.9 6.9c1.6 0 3.2-.6 4.3-1.5l4.1 4.1 1-1-4.1-4.1c1-1.2 1.5-2.7 1.5-4.3.1-3.9-3-7-6.8-7zm0 1.3c3.1 0 5.5 2.5 5.5 5.5s-2.5 5.5-5.5 5.5-5.5-2.5-5.5-5.5 2.5-5.5 5.5-5.5z"></path><path fill="#00C3A5" d="M18 31.1"></path></svg>