<svg xmlns="http://www.w3.org/2000/svg" viewBox="0 0 37 32" enable-background="new 0 0 37 32"><circle fill="#B9EDE6" cx="9.3" cy="7.5" r="4.7"></circle><path fill="#00C3A5" d="M9.2 1.7c-3.2 0-5.8 2.6-5.8 5.8s2.6 5.7 5.7 5.7 5.7-2.6 5.7-5.7-2.5-5.8-5.6-5.8zm18.3 0v1.6h6.3l-6.4 7-3.2-3.2-9 9-3.2-3.2-11.2 10.3 1.1 1.2 10.1-9.3 3.3 3.3 9-9 3.3 3.3 7.3-8.1v6.1h1.6v-9h-9zm-18.3 1.7c2.3 0 4.1 1.8 4.1 4.1s-1.8 4.1-4.1 4.1-4.1-1.9-4.1-4.1 1.8-4.1 4.1-4.1zm-.5 1.8l-1.4 1.5h1.2v3h1.5v-4.5h-1.3zm21.3 7.2v19.6h1.6v-19.6h-1.6zm4.9 1.6v18h1.6v-18h-1.6zm-14.8 2.5v15.5h1.6v-15.5h-1.6zm4.9 0v15.5h1.6v-15.5h-1.6zm-14.7 4v11.5h1.7v-11.5h-1.7zm4.9.9v10.6h1.6v-10.6h-1.6zm-9.8 3.2v7.4h1.6v-7.4h-1.6zm-4.9 3.3v4.1h1.6v-4.1h-1.6z"></path></svg>