<svg xmlns="http://www.w3.org/2000/svg" viewBox="0 0 37 32" enable-background="new 0 0 37 32"><path fill="#B9EDE6" d="M18.5.6c.1.1 0 16.1 0 16.1h11.6l.8-5.8-.2-4.6-5.3-1.9-4.8-3.1-2.1-.7zM18.2 16.7h-11.3l2 5.9 4.8 6.3 2.9 2 1.9.4z"></path><path fill="#00C3A5" d="M31 5.6c-2.2 0-4.5-1.3-6.7-2.7-1.1-.7-2.1-1.4-3.1-1.9-.9-.5-1.8-.9-2.6-1h-.30000000000000004c-.9 0-1.7.4-2.6 1-1 .5-2 1.2-3.1 1.9-2.1 1.4-4.4 2.7-6.6 2.7-.4 0-.7.3-.7.7v4.9c0 5.2 2 10.3 4.5 14.2 1.3 1.9 2.7 3.6 4.2 4.7 1.4 1.1 2.9 1.8 4.3 1.9h.3c1.4-.1 2.9-.8 4.3-1.9 1.5-1.2 2.9-2.8 4.2-4.7 2.6-3.9 4.5-9 4.5-14.2v-4.9c.1-.4-.2-.7-.6-.7zm-13.2 24.9c-.8-.2-1.8-.7-2.9-1.5-1.3-1-2.7-2.6-3.9-4.4-1.4-2.1-2.6-4.6-3.3-7.2h10.2v13.1zm0-14.5h-10.5c-.4-1.6-.6-3.2-.6-4.9v-4.2c1-.1 1.9-.3 2.8-.7.4-.2.9-.4 1.1-.5 1-.5 1.9-1 2.8-1.6 1.1-.7 2.1-1.4 3-1.9.5-.3 1-.5 1.4-.6v14.4zm11.4 1.8c0 .1 0 .1-.1.2v.1c-.1.4-.3.9-.5 1.3l-.2.5c-.7 1.7-1.5 3.3-2.5 4.7-.7 1-1.4 1.9-2.2 2.7-.2.2-.3.4-.5.5-.2.2-.4.4-.7.6-.2.2-.3.3-.5.4.1.2 0 .2 0 .3l-.5.3c-.8.6-1.6.9-2.3 1.1v-13.1h10.2l-.2.4zm1.1-6.7c0 1.6-.2 3.3-.6 4.9h-10.5v-14.5c.4.1.9.3 1.4.6.9.5 1.9 1.2 3 1.9 2 1.3 4.3 2.6 6.7 2.8v4.3z"></path></svg>