<svg xmlns="http://www.w3.org/2000/svg" viewBox="0 0 37 32" enable-background="new 0 0 37 32"><path fill="#B9EDE6" d="M21.6 23.7v7.5l-3.1-1.7-3.1 1.9v-7.7l-1-.9v-1.6l-.6-1.2 1.1-1.4.7-1.8h1.5l1.3-.9 1.3.7 1.8.4.3 1.3 1.2 1.2-1 1.5.5 1.2z"></path><path fill="#00C3A5" d="M3 0c-.3.1-.5.3-.5.6v25.6c0 .4.3.6.6.6h10.2v-1.3h-9.5v-24.2h29.5v24.3h-9.6v1.3h10.2c.4 0 .6-.3.6-.6v-25.7c0-.4-.3-.6-.6-.6h-30.900000000000002zm5.9 5.8v1.2h19.2v-1.2h-19.2zm0 3.2v1.3h19.2v-1.3h-19.2zm0 3.2v1.3h19.2v-1.3h-19.2zm9.5 3.1c-.7 0-1.2.4-1.5.9-.6-.2-1.3-.1-1.8.3s-.7 1.1-.6 1.7c-.6.3-1.1.7-1.2 1.4v.1c-.1.6.2 1.2.6 1.6-.3.6-.4 1.3-.1 1.8.2.3.5.6.8.7v7.5c0 .2.1.4.3.5.2.1.4.1.6 0l2.9-1.7 2.9 1.7c.2.1.4.1.6 0 .2-.1.3-.3.3-.5v-7.8c.2-.1.3-.2.4-.4v-.1c.3-.6.3-1.2 0-1.8.6-.4 1-1 .9-1.7v-.1c-.1-.6-.6-1.1-1.2-1.4.1-.6-.1-1.3-.6-1.7-.5-.5-1.2-.5-1.8-.3-.3-.3-.8-.7-1.5-.7zm0 1.3c.3 0 .5.2.6.5.1.2.2.3.4.4h.2l.2.1c.1 0 .2 0 .3-.1.3-.2.6-.2.8 0 .3.2.3.5.2.8-.1.2 0 .5.1.6l.1.2c.1.1.2.2.3.2.4.1.5.2.6.6 0 .3 0 .5-.5.6-.3.1-.4.3-.4.6v.3c0 .1 0 .3.1.4.2.3.2.6.1.8-.2.3-.5.4-.7.4-.2 0-.4 0-.5.2l-.2.2c-.1.1-.2.3-.2.5 0 .3-.1.5-.4.6h-.2c-.2 0-.3-.1-.5-.3-.1-.1-.3-.2-.4-.2h-.3c-.2 0-.3.1-.5.2-.3.3-.5.3-.7.2-.2-.1-.4-.4-.4-.6 0-.2-.1-.3-.2-.5l-.2-.2c-.1-.1-.3-.2-.5-.2-.3 0-.5-.1-.6-.3-.1-.2-.1-.5.1-.8.1-.1.1-.2.1-.4v-.3c0-.2-.1-.5-.3-.6-.2-.1-.3-.4-.3-.7.1-.4.2-.6.5-.6.1 0 .3-.1.4-.2.1-.1.1-.2.2-.2.1-.2.2-.4.1-.6-.1-.3-.1-.6.2-.8.2-.2.6-.2.8-.1.2.1.5.2.7 0h.1c.2-.1.4-.2.4-.5-.1 0 .1-.2.4-.2zm2.7 7.9v5.7l-2.2-1.3c-.2-.1-.4-.1-.6 0l-2.2 1.3v-5.1c.2.1.3.3.5.3.6.2 1.2 0 1.7-.3.3.2.7.4 1.1.4.1 0 .4 0 .7-.1.5-.1.8-.5 1-.9z"></path></svg>