<svg xmlns="http://www.w3.org/2000/svg" viewBox="0 0 37 32" enable-background="new 0 0 37 32"><path fill="#B9EDE6" d="M27.8 20l-3.7-.3-1.4-3.3-1.1 3.3-4 .3 3.2 2.4-1.1 3.5 3.3-1.8 3.1 1.7-.8-3.6zM12.2.6h8.7v4.9h-8.7z"></path><path fill="#00C3A5" d="M12 0c-.3.1-.5.3-.5.6v.6h-5.2c-1 0-1.9.8-1.9 1.9v24.4c0 1.1.8 1.9 1.9 1.9h6.5v-1.3h-6.5c-.3 0-.6-.3-.6-.6v-24.4c0-.3.3-.6.6-.6h5.2v1.3h-4.5v23h5.8v-1.3h-4.5v-20.4h3.2v.6c0 .4.3.6.6.6h9c.4 0 .6-.3.6-.6v-.6h3.2v3.9h1.3v-5.2h-4.5v-1.2h5.2c.3 0 .6.3.6.6v5.8h1.3v-5.9c0-1-.8-1.9-1.9-1.9h-5.2v-.6c0-.4-.3-.6-.6-.6h-9.1zm.7 1.3h7.7v3.8h-7.7v-3.8zm1.2 8.3c-.3.1-.5.3-.5.6v21.1c0 .4.3.6.6.6h17.9c.4 0 .6-.3.6-.6v-21.1c0-.4-.3-.6-.6-.6h-18zm.8 1.3h16.6v19.8h-16.6v-19.8zm8.2 4.7c-.3.1-.5.2-.5.4l-1.2 3.1-3.4.2c-.3 0-.5.2-.6.4-.1.3 0 .5.2.7l2.6 2.1-.9 3.3c-.1.3 0 .5.2.7.2.2.5.2.7 0l2.9-1.8 2.9 1.8c.2.1.5.1.7 0 .2-.2.3-.4.2-.7l-.9-3.3 2.6-2.1c.2-.2.3-.4.2-.7-.1-.3-.3-.4-.6-.4l-3.4-.2-1-3.1c-.1-.2-.4-.4-.7-.4zm.1 2.5l.7 1.9c.1.2.3.4.6.4l2.1.1-1.6 1.3c-.2.2-.3.4-.2.7l.6 2-1.8-1.1c-.2-.1-.5-.1-.7 0l-1.8 1.1.6-2c.1-.2 0-.5-.2-.7l-1.6-1.3 2.1-.1c.3 0 .5-.2.6-.4l.6-1.9z"></path></svg>