<svg xmlns="http://www.w3.org/2000/svg" viewBox="0 0 37 32" enable-background="new 0 0 37 32"><path fill="#B9EDE6" d="M13.5 9.6v9h-1.1l.2 8.4 1.5 1.8v2.3l-4.5.3-.9-1.1-3.1-11.4-1.9-1.4-.5-5.5 1.7-2.4zM30.3 12.5c.1.1 0 4.9 0 4.9l2.2-.2 1.3-2.2-.7-1.8s-1.5-.6-1.6-.7h-1.2z"></path><path fill="#00C3A5" d="M28.8 0c-.2 0-.4.1-.5.2-.3.1-.6.2-.8.4-.3.3-.6.7-.9 1.1-.6.9-1.3 2-2.2 3-1.9 2.2-4.9 4.3-10.8 4.3h-7.6c-1.9 0-3.5 1.6-3.5 3.5v3.5c0 1.5.9 2.7 2.2 3.2l.1.1c.2.2.8 1.2 1.3 3s1 4.3 1.6 7.3c.1.6.3 1.2.8 1.6.5.6 1.2.8 2 .8h2.3c.6 0 1.2-.1 1.7-.5.4-.4.6-1 .6-1.6 0-1.2-.7-2.1-1.5-2.9.1.1 0-.1-.1-.5s-.2-1-.2-1.7c-.3-1.3-.3-3.2-.3-5.3h.8c5.9 0 8.9 2.3 10.8 4.6 1 1.2 1.6 2.3 2.2 3.3.3.5.6.9.9 1.2s.8.6 1.3.6c.3 0 .5-.1.7-.3.2-.2.3-.4.4-.6.2-.5.3-1.1.5-2.2.2-1.6.4-4.2.4-8.1h.3c1.6 0 2.9-1.2 3.1-2.8l.1-.3c0-1.7-1.4-3.2-3.1-3.2h-.4c-.1-4.3-.3-7.1-.5-8.8-.2-1-.3-1.7-.5-2.2-.1-.2-.2-.4-.4-.6-.2 0-.5-.1-.8-.1zm-.1 1.5c.1.3.3.8.4 1.8.3 1.9.5 5.4.5 11.3 0 6-.2 9.4-.5 11.3-.1.9-.3 1.5-.4 1.8 0 0-.1 0-.2-.1-.2-.2-.4-.5-.7-1-.6-.9-1.3-2.1-2.3-3.4-2-2.5-5.4-5-11.3-5.1v-7.7c5.8-.2 9.1-2.5 11.1-4.7 1.1-1.2 1.8-2.4 2.3-3.2.3-.4.5-.7.7-.9.3-.1.3-.1.4-.1zm-22.7 8.9h7v7.7h-7c-1.2 0-2.1-.9-2.1-2.1v-3.5c0-1.1.9-2.1 2.1-2.1zm25 2.8h.3c.9 0 1.7.8 1.7 1.8s-.8 1.7-1.7 1.7h-.3v-3.5zm-24.3 6.3h4.9c0 2.2.1 4.1.2 5.5.1.8.1 1.4.2 1.9s.1.8.5 1.2c.8.8 1.1 1.2 1.1 1.9 0 .4-.1.5-.1.5s-.3.2-.7.2h-2.3c-.5 0-.8-.1-.9-.3-.2-.2-.3-.5-.4-.9-.6-3-1.1-5.5-1.6-7.4-.3-1.1-.6-2-.9-2.6z"></path></svg>