<svg xmlns="http://www.w3.org/2000/svg" viewBox="0 0 37 32" enable-background="new 0 0 37 32"><path fill="#B9EDE6" d="M24.7 14.4h-5.5v3l.9.7 4.3-.3.6-.9z"></path><path fill="#00C3A5" d="M21.8 0c-3.7.1-6.8 3.3-6.8 7 0 2 1 3.5 1.9 4.7.9 1.2 1.6 2.2 1.6 2.9v2.1c0 1.1.9 2.1 2.1 2.1h.2c.2.4.7.7 1.2.7s1-.3 1.2-.7h.2c1.1 0 2.1-.9 2.1-2.1v-2.1c0-.7.7-1.7 1.6-2.9.9-1.2 1.9-2.8 1.9-4.7 0-3.9-3.3-7.1-7.2-7zm0 1.4c3.2-.1 5.8 2.4 5.8 5.6 0 1.5-.8 2.7-1.6 3.9-.7 1-1.5 1.9-1.8 3h-1.5v-6l1.2-1.2c.2-.2.3-.4.2-.7-.1-.2-.3-.4-.5-.5-.2-.1-.5 0-.7.2l-.9 1-.9-.9c-.1-.1-.3-.2-.5-.2-.3 0-.5.2-.6.4-.1.3 0 .6.2.8l1.2 1.2v6h-1.5c-.3-1.1-1.1-2-1.8-3-.9-1.2-1.6-2.4-1.6-3.9-.1-3.1 2.4-5.6 5.3-5.7zm-1.9 13.9h4.2v1.4c0 .4-.3.7-.7.7h-2.8c-.4 0-.7-.3-.7-.7v-1.4zm11.9 2.8h-.4c-.3.1-.7.2-1 .4l-7.7 4.8c-.2-.1-.4-.2-.7-.3-.3-.2-.7-.3-.9-.4-1.1-.5-4.4-1.9-6.9-3-1.1-.5-2.2-.7-3.4-.7s-2.3.1-3.4.5l-4.4 1.9c-.2.1-.4.3-.4.6 0 .2.1.5.3.7.2.1.5.2.7.1l4.4-2c1.8-.8 3.9-.7 5.7.1 2.6 1.1 6 2.5 6.9 3 .2.1.5.2.8.4.3.2.7.3.7.3.3.2.5.5.5.9 0 .6-.5 1-1 1h-.2l-1.2-.4c-.7-.2-1.5-.4-2.3-.7-1.7-.5-3.3-1-3.3-1-.2-.1-.5 0-.7.1-.2.2-.3.4-.2.7.1.2.3.4.5.5 0 0 1.6.5 3.3 1 .8.2 1.7.5 2.4.7.7.2 1.1.3 1.3.4l.6.1c1.3 0 2.4-1.1 2.4-2.4 0-.4-.1-.8-.3-1.1l7.4-4.6c.6-.4 1.3-.2 1.7.4.4.6.2 1.3-.3 1.7l-11 8.3c-.7.6-1.7.7-2.6.4l-8.1-2.9c-1.9-.8-4-.5-5.7.7l-2.5 1.7c-.3.2-.4.7-.2 1 .2.3.7.4 1 .2l2.4-1.8c1.2-.9 2.9-1.1 4.3-.5l8.1 2.9c1.3.5 2.8.2 3.9-.6l11-8.3c1.1-.7 1.4-2.2.8-3.3 0-.1 0-.2-.1-.2-.4-.9-1.3-1.3-2.2-1.3z"></path></svg>