<svg width="106" height="108" viewBox="0 0 106 108" fill="none" xmlns="http://www.w3.org/2000/svg">
<circle cx="40" cy="58" r="40" fill="#E5F9F7"/>
<path d="M29.3506 65.4069H29.0381M29.0381 65.4069H24.3507V60.047C24.507 59.3324 25.2257 57.9337 26.8507 58.0562C28.4756 58.1787 28.986 59.4345 29.0381 60.047V65.4069Z" stroke="black" stroke-width="2"/>
<path d="M29.3506 43.332H29.0902M29.0902 43.332H25.1841V40.9499C25.1841 40.4705 25.9132 39.5985 27.2673 39.6529C28.6215 39.7074 29.0902 40.4705 29.0902 40.9499V43.332Z" stroke="black" stroke-width="2"/>
<path d="M26.8507 92.3873V71.9476H43.9718M90.1822 92.3873V71.9476H64.9161M43.9718 71.9476L44.6367 72.8767V92.3873M43.9718 71.9476H51.7844M50.9532 92.3873V72.8767L51.7844 71.9476M51.7844 71.9476H64.9161M65.581 92.3873V72.8767L64.9161 71.9476" stroke="black" stroke-width="2"/>
<path d="M71.9625 92.3873V72.8408L72.7958 71.9476" stroke="black" stroke-width="2"/>
<path d="M0 93.176H106M0 106.607H106M0 100.11H106M19.7447 47.8108H20.721M35.6004 47.8108H34.3885M20.721 47.8108V44.6273M20.721 47.8108H34.3885M18.7255 44.1497L34.3885 44.1497M36.6197 44.1497L34.3885 44.1497M34.3885 47.8108V44.1497" stroke="black" stroke-width="2"/>
<path d="M21.6688 44.1497V36.7265H34.2068V44.1497M20.6008 36.3891H22.6458M35.1837 36.3891H33.2298M22.6458 36.3891V33.5211H33.2298V36.3891M22.6458 36.3891H33.2298" stroke="black" stroke-width="2"/>
<path d="M23.4778 33.5211V25.3452H31.8902V33.5211M22.6841 24.8643H23.9539M32.6839 24.8643H31.5728M23.9539 24.8643V21.1771H31.5728V24.8643M23.9539 24.8643H31.5728M23.0016 20.8565H23.9539M32.5251 20.8565H31.5728M23.9539 20.8565L25.065 18.4518L27.7634 8.99347L30.4617 18.4518L31.5728 20.8565M23.9539 20.8565H31.5728" stroke="black" stroke-width="2"/>
<path d="M21.0175 68.2588V47.8192H34.4815V58.2804M49.0811 48.7848H42.4302V53.935L36.4282 58.2804H29.615V68.2588M49.0811 48.7848V52.8084H74.8737V49.1067M49.0811 48.7848L62.0585 38.0017M74.8737 49.1067H81.8491V68.2588M74.8737 49.1067L62.0585 38.0017M62.0585 38.0017V31.8859M63.1941 93.2049V79.5248H53.6232V93.2049" stroke="black" stroke-width="2"/>
<circle cx="81.9286" cy="13.7143" r="9" fill="#FEFBDC" stroke="black" stroke-width="2"/>
<path d="M96.0154 68.6773H10.1845V93.2049H96.0154V68.6773Z" stroke="black" stroke-width="2"/>
<path d="M63.3496 44.9673C63.3496 45.7517 62.6961 46.42 61.8497 46.42C61.0032 46.42 60.3497 45.7517 60.3497 44.9673C60.3497 44.1828 61.0032 43.5145 61.8497 43.5145C62.6961 43.5145 63.3496 44.1828 63.3496 44.9673Z" stroke="black" stroke-width="2"/>
<path d="M29.1839 2.45276C29.1839 3.23723 28.5304 3.90552 27.684 3.90552C26.8375 3.90552 26.1841 3.23723 26.1841 2.45276C26.1841 1.66829 26.8375 1 27.684 1C28.5304 1 29.1839 1.66829 29.1839 2.45276Z" stroke="black" stroke-width="2"/>
<rect x="27.2595" y="29.0243" width="0.849032" height="0.817587" stroke="black" stroke-width="0.817587"/>
<rect x="17.0177" y="77.8532" width="4.66648" height="6.17587" stroke="black" stroke-width="2"/>
<rect x="51.1834" y="58.2311" width="20.4994" height="5.35828" stroke="black" stroke-width="2"/>
</svg>
