<svg width="120" height="110" viewBox="0 0 120 110" fill="none" xmlns="http://www.w3.org/2000/svg">
<circle cx="21.25" cy="11.25" r="10.25" fill="#FEFBDC" stroke="black" stroke-width="2"/>
<circle cx="60" cy="55" r="40" fill="#E5F9F7"/>
<path fill-rule="evenodd" clip-rule="evenodd" d="M50.1875 3L54.9615 12.8182L56.8205 12.4267C56.7632 12.6691 56.733 12.9219 56.733 13.1818C56.733 14.6405 57.6873 15.8763 59.0057 16.299V17.5455H56.7081V19.5455H52.1626V24.6365H50.1626V29.3362L48.9573 25.6267L42.7322 27.6493L44.9434 34.4545H41.8238L41.8181 35.9091L14.1874 35.9091V37.9091L15.6427 37.9109V42.6364H13.4603L14.1882 49.5455H14.9155V53.7273H16.37V89.5455H14.9155V94.0909H0V96.0909H14.9155H25.0973H30.1882H40.37H45.4609H55.6427H64.37H74.5518H79.6427H89.8246H94.9155H105.097H120V94.0909H105.097V89.5455H103.643V53.7273H105.096L105.097 49.5455H105.824L106.551 42.6364H104.37L104.369 37.9091H105.825V35.9091H78.1882V34.4545H74.9632L77.1743 27.6493L70.9492 25.6267L69.799 29.1667V24.6365H67.799V19.5455H63.2536V17.5455H61.0057V16.299C62.3241 15.8763 63.2784 14.6405 63.2784 13.1818C63.2784 12.9219 63.2481 12.6691 63.1909 12.4267L65.0499 12.8182L69.8239 3L61.0057 6.92743V3H59.0057V6.92743L50.1875 3ZM103.092 94.0909V91.5455H96.9102V94.0909H103.092ZM94.9155 94.0909V89.5455H96.37V53.7273H88.37V89.5455H89.8246V94.0909H94.9155ZM87.8193 94.0909V91.5455H81.6375V94.0909H87.8193ZM79.6427 94.0909V89.5455H81.0973V53.7273H73.0973V89.5455H74.5518V94.0909H79.6427ZM72.5459 94.0909V91.5455H66.3641V94.0909H72.5459ZM64.37 94.0909V89.5455H65.8245V53.7273H54.1882V89.5455H55.6427V94.0909H64.37ZM53.6375 94.0909V91.5455H47.4557V94.0909H53.6375ZM45.4609 94.0909V89.5455H46.9155V53.7273H38.9155V89.5455H40.37V94.0909H45.4609ZM38.3648 94.0909V91.5455H32.183V94.0909H38.3648ZM30.1882 94.0909V89.5455H31.6427V53.7273H23.6427V89.5455H25.0973V94.0909H30.1882ZM23.0921 94.0909V91.5455H16.9102V94.0909H23.0921ZM72.8602 34.4545L74.6542 28.9334L72.2333 28.1468L70.1838 34.4545H72.8602ZM67.799 34.4545V26.6365H65.2536V34.4545H67.799ZM63.2536 34.4545V28.6365H56.7081V34.4545L63.2536 34.4545ZM54.7081 34.4545V26.6365H52.1626V34.4545H54.7081ZM49.7228 34.4545L47.6733 28.1468L45.2524 28.9334L47.0463 34.4545H49.7228ZM59.0057 9.11682L54.385 7.05885L56.0773 10.5394L59.0057 9.92274V9.11682ZM61.0057 9.92274L63.934 10.5394L65.6264 7.05885L61.0057 9.11682V9.92274ZM61.2784 13.1818C61.2784 13.8847 60.7086 14.4545 60.0057 14.4545C59.3028 14.4545 58.733 13.8847 58.733 13.1818C58.733 12.4789 59.3028 11.9091 60.0057 11.9091C60.7086 11.9091 61.2784 12.4789 61.2784 13.1818ZM58.7081 19.5455H61.2536V26.6365H58.7081V19.5455ZM56.7081 24.6365H54.1626V21.5455H56.7081V24.6365ZM65.799 24.6365V21.5455H63.2536V24.6365H65.799ZM41.6424 37.9091H17.6424V42.6364H41.6424V37.9091ZM76.3692 36.4545V42.6364H43.642V36.4545H76.3692ZM78.3688 37.9091V42.6364H102.369V37.9091H78.3688ZM104.294 44.6364L104.052 47.5455H15.9575L15.7156 44.6364H104.294ZM16.9134 49.5455V51.7273H103.095V49.5455H16.9134ZM21.6402 89.5455H18.3675V53.7273H21.6402V89.5455ZM33.6397 89.5455H36.9125V53.7273H33.6397V89.5455ZM52.1847 89.5455H48.912V53.7273H52.1847V89.5455ZM67.8207 89.5455H71.0934V53.7273H67.8207V89.5455ZM86.3657 89.5455H83.093V53.7273H86.3657V89.5455ZM101.638 89.5455H98.3652V53.7273H101.638V89.5455ZM0 101H120V103H0V101ZM120 107.909H0V109.909H120V107.909Z" fill="black"/>
</svg>
