<svg xmlns="http://www.w3.org/2000/svg" viewBox="0 0 37 32" enable-background="new 0 0 37 32"><path fill="#B9EDE6" d="M5.065 25.667l23.405-23.405 3.606 3.606-23.405 23.405z"></path><path fill="#00C3A5" d="M8.7 0l-.5.4-5.3 5.3-.4.5.4.5 10.2 10.2-8.1 8.1-.2.3-1.3 4.9c-.1.2 0 .5.2.6s.4.2.6.2l4.9-1.3c.1 0 .2-.1.3-.2l22.6-22.6.5-.5c1.2-1.2 1.2-3.3 0-4.5-1.2-1.2-3.3-1.2-4.5 0l-8.8 8.8-10.2-10.3-.4-.4zm0 1.9l1.1 1.1-.9.8.9.9.8-.8 1 1-1.5 1.5.9.9 1.5-1.5 1 1-.8.8.9.9.8-.8 1 1-1.5 1.5.9.9 1.5-1.5 1 1-.8.8.8.8-3.5 3.5-9.4-9.5 4.3-4.3zm19.8 1.5l2.6 2.6-22.4 22.5-2.7-2.7 22.5-22.4zm-4.1 12.3l-.5.4-1.3 1.3.9.9.8-.8 1 1-1.5 1.5.9.9 1.5-1.5 1 1-.8.8.9.9.8-.8 1 1-1.3 1.7.9.9 1.5-1.5 1 1-.8.8.9.9.8-.8.4.4-4.3 4.3-9-9-.9.9 9.6 9.7.5.4.5-.4 5.2-5.2.4-.5-.4-.5-9.7-9.7z"></path></svg>