<svg xmlns="http://www.w3.org/2000/svg" viewBox="0 0 37 32" enable-background="new 0 0 37 32"><path fill="#B9EDE6" d="M2.1 5.5h32.5v-2.9l-.7-.8h-30.4l-1.2.8z"></path><path fill="#00C3A5" d="M3.5 1c-1.1 0-2 .9-2 2v28h34.1v-28c0-1.1-.9-2-2-2h-30.1zm0 1.4h30c.4 0 .7.3.7.7v2h-31.4v-2.1c0-.3.3-.6.7-.6zm-.7 4.1h31.4v23.2h-31.4v-23.2zm18.4 2.7c-.3.1-.5.2-.6.4l-6.1 15c-.1.4 0 .8.4.9.4.1.8 0 .9-.4l6.1-15c.1-.2.1-.5-.1-.7-.1-.2-.4-.3-.6-.2zm-8.9 4.1l-.3.1-4.8 2.7c-.2.1-.4.3-.4.6s.1.5.4.6l4.8 2.7c.3.2.7.1.9-.3.2-.3.1-.7-.3-.9l-3.6-2.1 3.7-2.1c.3-.1.5-.5.4-.8s-.4-.6-.8-.5zm12.2 0c-.3 0-.5.3-.6.6 0 .3.1.6.4.7l3.7 2.1-3.7 2.1c-.3.2-.4.6-.3 1 .2.3.6.4.9.3l4.8-2.7c.2-.1.4-.3.4-.6s-.1-.5-.4-.6l-4.7-2.8c-.2-.1-.3-.2-.5-.1z"></path></svg>