<svg xmlns="http://www.w3.org/2000/svg" viewBox="0 0 37 32" enable-background="new 0 0 37 32"><path fill="#B9EDE6" d="M15.4 10.7c-1.1 0-2 .4-2.7 1-.7.7-1.1 1.6-1.1 2.7 0 1.9 1.1 3.3 2.5 4.5s2.8 2.2 3.9 3.4c.1.1.3.2.5.2s.4-.1.5-.2c1-1.2 2.6-2.3 3.9-3.4 1.3-1.2 2.5-2.6 2.5-4.5 0-1.1-.4-2.1-1.1-2.7s-1.6-1-2.7-1-1.9.6-2.5 1.1l-.5.5c-.2-.2-.2-.3-.5-.5-.7-.5-1.6-1.1-2.7-1.1z"></path><path fill="#00C3A5" d="M15.1 10c-1.2 0-2.3.4-3 1.2-.8.7-1.2 1.8-1.2 3.1 0 2.1 1.3 3.6 2.7 4.9s3.1 2.5 4.3 3.8c.1.2.3.3.5.3s.4-.1.5-.3c1.1-1.4 2.8-2.5 4.3-3.8 1.5-1.3 2.7-2.9 2.7-4.9 0-1.2-.4-2.3-1.2-3.1-.8-.7-1.8-1.2-3-1.2s-2.1.6-2.8 1.2c-.3.3-.3.4-.5.6-.2-.2-.2-.3-.5-.6-.6-.5-1.6-1.2-2.8-1.2zm0 1.4c.6 0 1.4.4 1.9.9l.9.9c.1.2.3.3.6.3s.4-.1.6-.3c0 0 .3-.5.9-.9.5-.5 1.3-.9 1.9-.9.9 0 1.6.3 2.1.8s.8 1.1.8 2.1c0 1.5-.9 2.7-2.3 3.9-1.2 1.1-2.7 2.2-3.9 3.5-1.2-1.3-2.7-2.4-3.9-3.5-1.4-1.2-2.3-2.4-2.3-3.9 0-.9.3-1.6.8-2.1.4-.5 1.1-.8 1.9-.8z"></path><path fill="#00C3A5" d="M33.8 15.3h-.6c-.3-7.6-6.4-13.7-14-14.1v-.5c0-.4-.3-.7-.7-.7s-.7.3-.7.7v.5c-7.6.4-13.7 6.5-14.1 14.1h-.5c-.4 0-.7.3-.7.7s.3.7.7.7h.6c.4 7.6 6.5 13.7 14.1 14v.6c0 .4.3.7.7.7s.7-.3.7-.7v-.6c7.6-.4 13.7-6.4 14.1-14h.6c.4 0 .7-.3.7-.7s-.5-.7-.9-.7zm-14.6 14v-1.8c0-.4-.3-.7-.7-.7s-.7.3-.7.7v1.8c-6.8-.3-12.3-5.8-12.7-12.6h1.9c.4 0 .7-.3.7-.7s-.3-.7-.7-.7h-1.9c.4-6.8 5.9-12.3 12.7-12.7v1.9c0 .4.3.7.7.7s.7-.3.7-.7v-1.9c6.8.4 12.3 5.9 12.7 12.7h-1.9c-.4 0-.7.3-.7.7s.3.7.7.7h1.9c-.4 6.8-5.9 12.3-12.7 12.6z"></path></svg>