<svg xmlns="http://www.w3.org/2000/svg" viewBox="0 0 37 32" enable-background="new 0 0 37 32"><path fill="#B9EDE6" d="M4.4 10.1l21.2.2 5.6-5.6-6.2-.2-3.8-3.7-3.2 3.1-1.6-1.7-2.3 2.2-2.6-.1z"></path><path fill="#00C3A5" d="M21.4.1c-.1 0-.3.1-.4.2l-3 2.6-1-1.2c-.1-.2-.4-.3-.6-.2-.2 0-.4.1-.5.2l-1.8 1.8h-2.7c-.1 0-.2.1-.3.2l-7.3 5.7h-.1l-.1.1s0 .1-.1.1v.1l-2.9 5.7c-.1.3-.1.6.1.8.2.2.6.3.8.1l1.9-.9v14.8c0 .4.3.7.7.7h21.900000000000002c.2-.1.3-.2.4-.3l5.7-7.1c.1-.1.2-.3.2-.5v-6.9l4.1-4.1c.2-.2.3-.6.1-.9l-4.2-7v-.1c0-.1-.1-.2-.2-.3 0 0-.1 0-.1-.1h-7l-3-3.2c-.1-.1-.3-.2-.5-.2 0-.1-.1-.1-.1-.1zm.1 1.7l5.5 6-1.6 1.6h-1.7l-.1-.1-4.7-5.3 2.6-2.2zm-5.1 1.5l5.4 6.1h-11.4l6-6.1zm-4.6 1.7h.8l-4.2 4.4h-2.3l5.7-4.4zm14.6 0h3.4l-1.8 1.8-1.6-1.8zm5 .5l3.6 5.9-4.8 4.8-3.6-5.9 4.8-4.8zm-26.7 5.3h20.3v18.8h-20.3v-18.8zm21.8 1.9l3 5c.1.2.3.3.5.4.2 0 .4 0 .6-.2l.2-.2v5.2l-4.3 5.4v-15.6zm-23.2.5v.8l-.5.3.5-1.1zm7.8.5c-.4.1-.7.4-.6.8.1.4.4.7.8.6h7.2c.3 0 .5-.1.6-.4.1-.2.1-.5 0-.7-.1-.2-.4-.4-.6-.4h-7.3c0 .1-.1.1-.1.1z"></path></svg>