<svg xmlns="http://www.w3.org/2000/svg" viewBox="0 0 37 32" enable-background="new 0 0 37 32"><path fill="#B9EDE6" d="M8.9 20.6h-4.1l-2.2 6.7 32 .1-2.4-6.8h-3.8l.5 2.5-20.9.1z"></path><path fill="#00C3A5" d="M5.2 1c-.7 0-1.4.6-1.4 1.3v17.5c0 .3.1.5.2.7l-.1.3-2 6.3c-.1.1-.2.3-.2.5v2.1c0 .7.6 1.4 1.4 1.4h30.8c.8 0 1.4-.6 1.4-1.4v-2.1c0-.2-.1-.3-.2-.5l-2-6.3-.1-.3c.1-.2.2-.4.2-.7v-17.5c0-.7-.6-1.3-1.4-1.3h-26.6zm0 1.4h26.5v17.5c0-.1-.1 0 0 0h-26.5c.1 0 0-.1 0 0v-17.5zm-.1 18.8h2.8000000000000003l-.5 1.9c-.1.4.1.8.5.8 0 .1.1.1.1.1h21c.4 0 .7-.3.7-.7v-.2l-.5-1.9h2.7l1.8 5.6h-30.4l1.8-5.6zm4.2 0h18.5l.3 1.4h-19.2l.4-1.4zm6.4 3.5l-.7 1.4h7l-.7-1.4h-5.6zm-12.6 3.5h30.7v1.4h-30.7v-1.4z"></path></svg>