<svg xmlns="http://www.w3.org/2000/svg" viewBox="0 0 37 32" enable-background="new 0 0 37 32"><path fill="#B9EDE6" d="M14.5 1.1c-6.3 0-11.6 4.6-11.6 10.4 0 2.8 1.2 5.3 3.2 7.2l-.1.3c-.4 1.3-1.6 2.8-2.2 3.1-.4.1-.7.3-.9.7-.2.4-.1.8.2 1.1.6.6 1.6.2 2.1.2 2.2 0 4.6-1.6 6.1-2.3l.5-.3-.2-.1c.9.2 1.8.3 2.7.3 5.6 0 10.4-3.3 11.5-8.2.1-.6.2-1.3.2-2 .1-5.8-5.1-10.4-11.5-10.4z"></path><path fill="#00C3A5" d="M14.5 0c-6.9 0-12.7 5.1-12.7 11.4 0 3.1 1.4 5.8 3.5 7.9l-.1.3c-.5 1.4-1.7 2.2-2.4 2.5-.4.1-.8.4-.9.8-.2.4-.1.9.2 1.2.7.7 1.5.6 2.2.6 2.4 0 5.2-1.2 6.9-2.1l.6-.3-.2-.1.2.1c.9.2 1.7.2 2.7.2 6.1 0 11.4-3.7 12.6-8.9.2-.7.2-1.4.2-2.2-.1-6.3-5.8-11.4-12.8-11.4zm0 1.5c6.3 0 11.2 4.5 11.2 10 0 .6-.1 1.3-.2 1.9-1 4.5-5.6 7.8-11.1 7.8-.9 0-1.8-.1-2.6-.3l-.3-.1-1.1.6c-1.6.8-4.4 1.9-6.2 1.9-.2 0-.3 0-.4-.1 1-.5 2.2-1.4 2.8-3.1l.3-1.2-.3-.3c-2.1-1.8-3.3-4.3-3.3-7.1-.1-5.6 5-10 11.2-10zm-6.2 5v1.5h12.4v-1.5h-12.4zm0 3.7v1.5h12.4v-1.5h-12.4zm20.2 3l-.1.7c-.1.3-.1.5-.2.7 3.3 1.3 5.6 3.9 5.6 6.8 0 2.1-1.1 4-3 5.5l-.4.3.1.5c.4 1.5 1.8 2.3 2.7 2.8-1.5.2-4.8-.1-6.4-2.1l-.3-.3-.5.1c-.7.1-1.4.2-2.3.2-4.5 0-8.2-1.8-9.6-4.4l-1.7-.1c1.3 3.6 5.7 5.9 11.3 5.9.8 0 1.6-.1 2.2-.2 1.6 1.6 4.2 2.3 6.3 2.3h.4c1.2-.1 2-.3 2.4-.8.2-.2.2-.5.1-.8-.1-.5-.6-.8-1.3-1.1-.7-.4-1.5-.8-1.9-1.5 2-1.7 3.2-3.9 3.2-6.3.1-3.5-2.5-6.7-6.6-8.2zm-20.2.6v1.5h8.7v-1.5h-8.7zm18.2 4.4l-1.2 1.5h3.4v-1.5h-2.2zm-3.9 3.6c-1 .6-2.1 1.1-3.3 1.5h9.4v-1.5h-6.1z"></path></svg>