<svg width="33px" height="32px" viewBox="0 0 33 32" version="1.1" xmlns="http://www.w3.org/2000/svg" xmlns:xlink="http://www.w3.org/1999/xlink">
    <defs>
        <polygon id="path-1" points="0 0 32.64385 0 32.64385 32 0 32"></polygon>
    </defs>
    <g id="Artboard-1" stroke="none" stroke-width="1" fill="none" fill-rule="evenodd">
        <path d="M31.7946,5.9253 C31.7036,5.8653 20.8916,0.6733 20.8916,0.6733 L18.4536,3.6013 C18.4536,3.6013 14.8616,4.8393 14.7716,4.8993 C14.6806,4.9593 12.2056,8.4613 12.2056,8.4613 L9.4586,15.4933 L10.1166,17.6583 L12.3866,18.2703 L14.2276,17.1833 L17.2456,10.9053 L28.5656,11.0563 L31.7946,5.9253 Z" id="Fill-1" fill="#B9EDE6"></path>
        <polygon id="Fill-3" fill="#B9EDE6" points="7.2253 27.0234 7.2253 30.1634 9.1393 31.2194 11.0583 30.4954 13.0563 31.3394 14.8013 30.4044 16.9733 31.3394 18.8163 30.3744 21.2003 31.3394 22.8603 30.1024 22.6193 27.0234 20.8913 25.9984 19.0573 27.0534 17.3063 25.9984 15.1933 27.0534 13.3223 26.2394 11.0583 27.1444 9.1393 25.9984"></polygon>
        <g id="Group-7">
            <mask id="mask-2" fill="white">
                <use xlink:href="#path-1"></use>
            </mask>
            <g id="Clip-6"></g>
            <path d="M20.8913,26.7764 C21.6203,26.7764 22.1973,27.3534 22.1973,28.0834 L22.1973,29.2654 L22.1973,29.3274 L22.1973,29.3884 C22.1923,29.4364 22.1923,29.4824 22.1973,29.5314 C22.1253,30.1914 21.5723,30.6944 20.8913,30.6944 C20.1623,30.6944 19.5853,30.1184 19.5853,29.3884 L19.5853,28.0834 C19.5853,27.3534 20.1623,26.7764 20.8913,26.7764 Z M16.9733,26.7764 C17.7033,26.7764 18.2803,27.3534 18.2803,28.0834 L18.2803,29.3884 C18.2803,30.1184 17.7033,30.6944 16.9733,30.6944 C16.2443,30.6944 15.6683,30.1184 15.6683,29.3884 L15.6683,28.0834 C15.6683,27.3534 16.2443,26.7764 16.9733,26.7764 Z M13.0563,26.7764 C13.7863,26.7764 14.3623,27.3534 14.3623,28.0834 L14.3623,29.3884 C14.3623,30.1184 13.7863,30.6944 13.0563,30.6944 C12.3273,30.6944 11.7503,30.1184 11.7503,29.3884 L11.7503,28.0834 C11.7503,27.3534 12.3273,26.7764 13.0563,26.7764 Z M9.1393,26.7764 C9.8683,26.7764 10.4443,27.3534 10.4443,28.0834 L10.4443,29.3884 C10.4443,30.1184 9.8683,30.6944 9.1393,30.6944 C8.4533,30.6944 7.8943,30.1784 7.8333,29.5104 C7.8503,29.4234 7.8503,29.3324 7.8333,29.2454 L7.8333,28.0834 C7.8333,27.3534 8.4093,26.7764 9.1393,26.7764 Z M10.5873,9.8004 L10.9133,9.8004 L9.0373,14.4934 C8.3693,16.1614 9.1873,18.0694 10.8523,18.7374 C12.5203,19.4064 14.4283,18.5664 15.0973,16.9014 L17.1583,11.7594 L28.4003,11.7594 C29.3793,11.7594 30.1343,12.5814 30.0323,13.5554 C29.9453,14.3914 29.2413,15.0244 28.4003,15.0244 L27.4203,15.0244 L27.3593,15.0244 C27.3183,15.0264 27.2783,15.0344 27.2373,15.0454 C27.2163,15.0494 27.1963,15.0574 27.1753,15.0654 C27.0933,15.0904 27.0173,15.1314 26.9513,15.1874 L26.9513,15.2084 C26.9203,15.2334 26.8953,15.2584 26.8703,15.2894 L26.8703,15.3104 C26.8543,15.3224 26.8413,15.3354 26.8283,15.3504 L26.8283,15.3714 C26.7453,15.5194 26.7243,15.6944 26.7673,15.8604 L26.7873,15.8814 L26.7873,15.9224 L26.8083,15.9424 C26.8213,15.9704 26.8333,15.9984 26.8493,16.0244 L26.8703,16.0444 C26.8743,16.0574 26.8823,16.0724 26.8903,16.0854 C26.8973,16.0924 26.9033,16.0984 26.9103,16.1054 C26.9553,16.1614 27.0123,16.2104 27.0743,16.2484 C27.0863,16.2564 27.1013,16.2634 27.1143,16.2694 C27.1213,16.2764 27.1263,16.2814 27.1343,16.2894 L27.1753,16.2894 C27.1833,16.2974 27.1883,16.3024 27.1963,16.3094 L27.2373,16.3094 L27.2573,16.3094 C27.2973,16.3194 27.3383,16.3274 27.3793,16.3304 L27.4003,16.3304 L27.4203,16.3304 L27.7463,16.3304 C28.7263,16.3304 29.4603,17.1514 29.3593,18.1264 C29.2693,18.9624 28.5853,19.5944 27.7463,19.5944 L26.7673,19.5944 L26.7063,19.5944 C26.6653,19.5974 26.6243,19.6044 26.5833,19.6154 C26.5633,19.6204 26.5423,19.6284 26.5223,19.6354 C26.4413,19.6614 26.3653,19.7024 26.2983,19.7574 L26.2983,19.7784 C26.2673,19.8034 26.2423,19.8294 26.2163,19.8604 L26.2163,19.8804 C26.2013,19.8934 26.1883,19.9064 26.1753,19.9214 L26.1753,19.9414 C26.0913,20.0894 26.0713,20.2654 26.1153,20.4314 C26.1213,20.4384 26.1273,20.4444 26.1353,20.4514 L26.1353,20.4924 C26.1423,20.5004 26.1483,20.5054 26.1553,20.5124 C26.1673,20.5414 26.1813,20.5694 26.1963,20.5944 L26.2163,20.6154 C26.2213,20.6284 26.2293,20.6424 26.2373,20.6554 L26.2573,20.6754 C26.3033,20.7324 26.3593,20.7804 26.4203,20.8194 C26.4333,20.8264 26.4493,20.8344 26.4613,20.8394 L26.4823,20.8594 L26.5223,20.8594 C26.5303,20.8674 26.5363,20.8724 26.5423,20.8804 L26.5833,20.8804 L26.6043,20.8804 C26.6453,20.8904 26.6863,20.8974 26.7263,20.9004 L26.7463,20.9004 L26.7673,20.9004 L27.0933,20.9004 C28.0713,20.9004 28.8023,21.7244 28.7053,22.6964 C28.6213,23.5354 27.9383,24.1654 27.0933,24.1654 L25.9313,24.1654 L25.8703,24.1654 C25.5103,24.1824 25.2293,24.4894 25.2473,24.8484 C25.2653,25.2084 25.5713,25.4884 25.9313,25.4704 L26.4413,25.4704 C27.4083,25.4704 28.1583,26.2824 28.0733,27.2464 C27.9993,28.0954 27.2923,28.7354 26.4413,28.7354 L23.5023,28.7354 L23.5023,28.0834 C23.5023,26.6464 22.3273,25.4704 20.8913,25.4704 C20.1083,25.4704 19.4123,25.8364 18.9323,26.3884 C18.4533,25.8364 17.7563,25.4704 16.9733,25.4704 C16.1903,25.4704 15.4943,25.8364 15.0153,26.3884 C14.5353,25.8364 13.8393,25.4704 13.0563,25.4704 C12.2733,25.4704 11.5773,25.8364 11.0973,26.3884 C10.6183,25.8364 9.9223,25.4704 9.1393,25.4704 C7.7033,25.4704 6.5273,26.6464 6.5273,28.0834 L6.5273,28.7354 L3.7723,28.7354 L1.3853,17.9424 L4.9353,15.5754 C5.0093,15.5264 5.0713,15.4654 5.1193,15.3914 L7.8733,11.2494 C8.4783,10.3414 9.4953,9.8004 10.5873,9.8004 Z M21.0753,1.4764 L31.0523,6.1694 L28.3593,10.4544 L16.7293,10.4544 C16.4613,10.4514 16.2163,10.6114 16.1173,10.8614 L13.8923,16.4324 C13.4873,17.4444 12.3553,17.9194 11.3423,17.5134 C10.3293,17.1084 9.8553,15.9754 10.2613,14.9634 L13.0563,7.9644 C13.7503,6.2304 15.3083,5.0064 17.1583,4.7404 L17.3413,4.7204 C18.1623,4.6034 18.9243,4.1644 19.4433,3.5164 L21.0753,1.4764 Z M20.7883,0.0074 C20.6253,0.0354 20.4803,0.1224 20.3813,0.2524 L18.4223,2.7004 C18.1113,3.0904 17.6523,3.3434 17.1583,3.4144 L16.9733,3.4554 C14.6633,3.7844 12.6993,5.3274 11.8323,7.4954 L11.4243,8.4954 L10.5873,8.4954 C9.0593,8.4954 7.6193,9.2654 6.7723,10.5354 L4.0993,14.5554 L0.2843,17.0854 C0.0593,17.2384 -0.0457,17.5154 0.0183,17.7784 L2.6303,29.5314 C2.6963,29.8274 2.9593,30.0394 3.2623,30.0414 L6.6293,30.0414 C6.9203,31.1634 7.9303,32.0004 9.1393,32.0004 C9.9223,32.0004 10.6183,31.6354 11.0973,31.0824 C11.5773,31.6354 12.2733,32.0004 13.0563,32.0004 C13.8393,32.0004 14.5353,31.6354 15.0153,31.0824 C15.4943,31.6354 16.1903,32.0004 16.9733,32.0004 C17.7563,32.0004 18.4533,31.6354 18.9323,31.0824 C19.4123,31.6354 20.1083,32.0004 20.8913,32.0004 C22.1003,32.0004 23.1103,31.1634 23.4013,30.0414 L26.4413,30.0414 C27.9583,30.0414 29.2483,28.8604 29.3793,27.3474 C29.4553,26.4654 29.1173,25.6494 28.5423,25.0624 C29.3403,24.6014 29.9143,23.7904 30.0113,22.8184 C30.1013,21.9254 29.7693,21.0894 29.1953,20.4924 C29.9863,20.0334 30.5623,19.2294 30.6643,18.2684 C30.7613,17.3654 30.4323,16.5244 29.8483,15.9224 C30.6473,15.4654 31.2153,14.6674 31.3173,13.6984 C31.4483,12.4484 30.7513,11.3134 29.7053,10.7804 L32.5413,6.2304 C32.6413,6.0724 32.6693,5.8804 32.6203,5.7024 C32.5703,5.5214 32.4453,5.3734 32.2763,5.2924 L21.1763,0.0684 C21.0573,0.0094 20.9213,-0.0136 20.7883,0.0074 Z" id="Fill-5" fill="#00C3A5" mask="url(#mask-2)"></path>
        </g>
    </g>
</svg>