<svg xmlns="http://www.w3.org/2000/svg" viewBox="0 0 37 32" enable-background="new 0 0 37 32"><path fill="#B9EDE6" d="M28.6 22.4l-15.4 4.4 1.1 3.8 1.1.7 13.8-3.9.6-1.5z"></path><path fill="#00C3A5" d="M21.1 0c-.2 0-.4 0-.5.1l-12.3 3.5c-1.3.4-2.2 1.8-1.8 3.2l5.8 20.2c0 .1 0 .1.1.2l.8 2.9c.4 1.4 1.8 2.2 3.2 1.8l12.3-3.5c1.4-.4 2.2-1.8 1.8-3.2l-.8-2.8c0-.2 0-.3-.1-.5l-5.7-20c-.3-1-1.2-1.7-2.2-1.9h-.6zm.1 1.4c.6 0 1.1.3 1.3.9l5.5 19.6-14.6 4.1-5.5-19.6c-.2-.6.2-1.3.8-1.5l12.3-3.5h.2zm6.5 4.6c-.2 0-.4.2-.5.3-.1.2-.1.4-.1.6l3.5 12.3c.1.4.5.6.9.5.4-.1.6-.5.5-.9l-3.5-12.3c-.1-.3-.4-.5-.7-.5h-.1zm3.9 2.2c-.2 0-.4.2-.5.3-.1.2-.1.4 0 .6l1.7 6.1c.1.4.5.6.9.5.4-.1.6-.5.5-.9l-1.7-6.1c-.1-.3-.4-.5-.7-.5h-.2zm-26 4.1c-.3.1-.4.2-.5.3-.1.2-.1.4-.1.6l3.5 12.3c.1.3.5.5.9.4.4-.1.6-.5.5-.9l-3.5-12.2c-.1-.3-.4-.5-.8-.5zm-2.2 3.9c-.3.1-.4.2-.5.3-.1.2-.1.4-.1.6l1.7 6.1c.1.4.5.6.9.5.4-.1.6-.5.5-.9l-1.7-6.1c-.1-.3-.4-.5-.8-.5zm25 7l.7 2.4c.2.7-.2 1.3-.8 1.5l-12.3 3.5c-.7.2-1.3-.2-1.5-.8l-.7-2.4 14.6-4.2zm-6.8 2.9h-.2c-.5.1-.8.7-.7 1.2s.7.8 1.2.7.8-.7.7-1.2c-.2-.5-.6-.7-1-.7z"></path></svg>